<svg width="57" height="57" viewBox="0 0 57 57" fill="none" xmlns="http://www.w3.org/2000/svg">
<path d="M31.2457 53.8451C31.0218 54.5034 30.3085 56.1178 28.5817 56.1178C26.6177 56.1178 25.9366 53.9928 25.9036 53.9032L25.8455 53.7021C25.8455 53.7021 27.5369 53.8427 28.4686 53.8427C29.398 53.8427 30.9904 53.7508 31.248 53.7021L31.2457 53.8451Z" fill="black"/>
<path d="M36.3992 52.7974L36.8022 52.8485C36.3214 54.1047 35.4581 55.5125 33.7659 55.5125C32.1153 55.5125 31.3014 54.5572 30.9605 53.9185L30.6722 53.7425C30.6722 53.7425 33.5153 53.6506 36.3992 52.7974Z" fill="black"/>
<path d="M20.8239 52.7974L20.4209 52.8485C20.8993 54.1047 21.7666 55.5125 23.4643 55.5125C25.1054 55.5125 25.99 54.5069 26.3546 53.9185L26.5502 53.7425C26.5502 53.7425 23.7118 53.6506 20.8239 52.7974Z" fill="black"/>
<path d="M29.9596 53.9791C29.6917 54.3625 29.5118 54.3429 29.1952 54.3429C29.031 54.3429 28.7954 54.4748 28.7977 54.7184C28.8048 54.9101 28.9611 55.0656 29.218 55.0656C29.8025 55.0656 30.2495 54.2557 30.3681 53.9108C30.3681 53.9108 30.7107 53.8966 30.8104 53.8864C30.8104 53.8864 30.1977 55.7184 28.6029 55.7184C27.0058 55.7184 26.3545 53.9084 26.3545 53.9084C26.3545 53.9084 27.701 53.9901 28.4685 53.9901C29.2384 53.9901 29.7287 53.983 29.9596 53.9791Z" fill="url(#paint0_radial_62_156)"/>
<path d="M21.0407 53.1717C22.0785 53.4466 22.8201 53.6792 24.5681 53.8913C24.5681 53.8913 24.5123 54.068 24.1321 54.0539C23.9867 54.0445 23.9671 54.0083 23.9168 53.9997C23.8045 53.9793 23.6418 54.0932 23.6583 54.2825C23.6756 54.4161 23.7872 54.5818 24.1753 54.5818C24.5634 54.5818 25.0151 54.266 25.2437 53.9706C25.2437 53.9706 25.4754 54.0248 25.7166 54.0366C25.7166 54.0366 24.9695 55.0799 23.502 55.0799C21.8907 55.0799 21.2905 53.6336 21.0407 53.1717Z" fill="url(#paint1_radial_62_156)"/>
<path d="M28.4489 44.585C34.0141 44.585 40.1795 41.1692 44.5082 36.2451C44.9796 35.7125 45.7691 34.7006 47.6491 34.7006C49.5321 34.7006 52.0351 36.4171 51.742 39.5407C51.5236 41.8158 48.272 46.9489 42.7045 50.1063C37.1385 53.2762 32.0108 53.9541 28.4489 53.9541C24.8839 53.9541 19.761 53.2762 14.1918 50.1063C8.62504 46.9489 5.37422 41.8158 5.15739 39.5407C4.86436 36.4171 7.36808 34.7006 9.24724 34.7006C11.1319 34.7006 11.9246 35.7125 12.3944 36.2451C16.7167 41.1692 22.8853 44.585 28.4489 44.585Z" fill="#FFE500" stroke="black" stroke-width="0.5" stroke-miterlimit="3.863"/>
<path d="M28.4018 45.3424C22.8021 45.3424 16.43 42.0381 11.7369 36.6929C11.2592 36.15 10.6512 35.4516 9.20407 35.4516C8.35876 35.4516 7.40033 35.9041 6.76478 36.6041C6.28635 37.1242 5.74978 38.041 5.87862 39.4464C6.0648 41.3664 9.10744 46.3354 14.5305 49.4212C18.9015 51.9076 23.5688 53.1638 28.4018 53.1638C33.2396 53.1638 37.9068 51.9076 42.2779 49.4212C47.6994 46.3354 50.7467 41.3664 50.9258 39.4464C51.0602 38.041 50.5197 37.1242 50.0475 36.6041C49.4088 35.9041 48.448 35.4516 47.6067 35.4516C46.1533 35.4516 45.546 36.15 45.0727 36.6929C40.3823 42.0381 34.0024 45.3424 28.4018 45.3424Z" fill="#DA020E"/>
<path d="M52.4907 17.4672L52.5104 16.1693C52.9102 16.4749 53.6621 16.4797 54.102 16.0107C54.3023 15.797 54.4162 15.4662 54.3997 15.1261C54.3809 14.7419 54.2065 14.3428 53.9197 14.0616C52.2951 12.4739 50.852 10.8885 50.852 10.8885C50.7027 10.6528 50.4694 10.4824 50.3342 10.4242C50.1355 10.3292 49.4285 10.0063 48.8895 10.8249C48.4032 11.5665 48.4755 12.6121 48.569 12.9939L50.0923 15.0703C50.6139 15.7318 52.0838 17.1388 52.4907 17.4672Z" fill="black"/>
<path d="M19.9314 4.00892C21.8491 3.36473 23.6025 2.83209 25.9656 2.62312L26.3239 2.42201C25.0048 1.38108 23.6945 0.670898 22.3896 0.670898C21.5702 0.670898 19.9031 1.22789 19.5316 4.16919L19.9314 4.00892Z" fill="black"/>
<path d="M36.9704 4.00892C35.0519 3.36473 33.3 2.83209 30.9393 2.62312L30.5764 2.42201C31.9009 1.38108 33.2081 0.670898 34.5146 0.670898C35.3347 0.670898 36.9947 1.22789 37.3742 4.16919L36.9704 4.00892Z" fill="black"/>
<path d="M26.2822 2.52571C27.2469 0.670908 28.1292 0 28.6225 0C29.2322 0 29.9502 0.969436 30.5143 2.22404L30.6329 2.50843L30.1372 2.46993C29.8119 2.40866 28.8857 2.39687 28.5322 2.39687C28.1692 2.39687 27.3868 2.39688 26.9154 2.44087L26.2822 2.52571Z" fill="black"/>
<path d="M18.6753 44.3254L17.2785 46.8503C16.8566 47.6092 16.4222 48.0908 15.7096 47.6823C15.0081 47.2856 15.1707 46.7105 15.6012 45.9265L17.002 43.3984L15.8723 42.7715L14.3922 45.4433C13.5775 46.914 14.6027 47.826 15.4056 48.2683C16.2627 48.7428 17.5102 49.0956 18.3178 47.6359L19.8081 44.9523L18.6753 44.3254ZM36.6373 49.5273L36.1667 48.0787L37.5682 47.6262L37.3742 47.0236L35.9711 47.4785L35.572 46.2404L37.0065 45.7698L36.8133 45.1735L34.187 46.0275L35.6467 50.5149L38.5416 49.5761L38.3507 48.9774L36.6373 49.5273ZM39.6375 43.7202L38.0388 44.6417L40.4058 48.7465L41.9982 47.8257C43.6441 46.8767 43.8004 45.4391 43.1523 44.2858C42.3722 42.9173 41.0846 42.8859 39.6375 43.7202ZM42.0532 44.9693C42.6527 46.0196 42.5309 46.7856 41.6078 47.3143L41.1679 47.5704L39.4301 44.5678L39.903 44.2937C41.0115 43.6565 41.6408 44.2238 42.0532 44.9693ZM29.2644 46.8927L29.3501 47.5078L30.6714 47.3208L31.2426 51.3777L32.4713 51.2072L31.9017 47.1527L33.2034 46.972L33.1139 46.3483L29.2644 46.8927ZM28.1457 46.9311L26.9084 46.8635L26.6609 51.5771L27.899 51.6431L28.1457 46.9311ZM24.389 46.3548L23.5272 49.5758L21.9143 45.691L20.9111 45.4216L19.6887 49.982L20.7815 50.2719L21.6504 47.0242L23.2876 50.942L24.2688 51.2067L25.4865 46.6447L24.389 46.3548Z" fill="#FFE500"/>
<path d="M17.8779 16.5943V38.7027L28.4489 45.495L39.0192 38.7027L39.0349 16.6281C38.6963 16.3295 37.9932 15.6751 37.4425 15.3326H19.4067C18.9502 15.6531 18.0358 16.4246 17.8779 16.5943Z" fill="#FFE500"/>
<mask id="mask0_62_156" style="mask-type:luminance" maskUnits="userSpaceOnUse" x="17" y="15" width="23" height="31">
<path d="M17.8779 16.5943V38.7027L28.4489 45.495L39.0192 38.7027L39.0349 16.6281C38.6963 16.3295 37.9932 15.6751 37.4425 15.3326H19.4067C18.9502 15.6531 18.0358 16.4246 17.8779 16.5943Z" fill="white"/>
</mask>
<g mask="url(#mask0_62_156)">
<g filter="url(#filter0_f_62_156)">
<path d="M17.8779 7.6142L17.8779 16.5943V38.7027L28.4489 45.495L39.0192 38.7027L39.0349 7.64798" stroke="#B54005" stroke-width="10" stroke-miterlimit="3.863"/>
</g>
</g>
<path d="M32.6739 32.4566V31.6349C32.6739 31.6349 32.4555 31.2971 31.9142 31.2971C31.3745 31.2971 31.0516 31.4597 31.0516 31.5956C31.0516 31.8179 31.5347 32.4566 32.6739 32.4566ZM28.4112 25.1827L29.2282 23.7561L29.8685 25.1827H30.929C30.2911 25.7813 30.0303 26.6871 30.0303 27.2913V27.9496C30.0303 28.2293 29.8897 28.692 29.8897 28.692C29.8897 28.692 30.8104 29.3935 30.9518 29.5153C31.0107 29.5617 31.0752 29.5899 31.0327 29.7117C30.9597 29.9167 30.3343 30.1988 30.2707 30.2522C30.1293 30.3779 30.0924 30.4533 30.1293 30.5774C30.1741 30.6969 30.2911 30.7189 30.5307 30.634C30.7727 30.5562 31.2739 30.2931 31.6942 30.1131C32.1129 29.9309 32.6739 29.9772 32.6739 29.9772V29.172H31.0901V26.6133L30.8104 26.1624L31.5088 24.918L32.2111 26.1702L31.9346 26.6133V27.9496H32.7414V26.6133L32.4633 26.1702L33.1641 24.9274L33.8617 26.1702L33.586 26.6133V27.9496H34.3983V26.6133L34.1107 26.1702L34.8138 24.9274L35.5146 26.1702L35.2349 26.6133L35.2483 29.1681H33.6519V30.3496C34.0141 30.6898 34.3558 31.4597 34.3558 31.913C34.3558 32.3773 34.0534 32.5737 34.0534 32.5737C34.1547 32.9382 34.1351 33.0898 34.0919 33.4198C34.0534 33.7552 33.6347 34.2784 33.6347 34.2784V40.3849C33.6347 40.7997 32.6739 40.7588 32.6739 40.4045V34.4159C32.1302 33.8212 30.6501 33.3538 30.6501 33.3538C30.1073 33.8966 29.7734 34.8393 29.7734 34.8393C30.0091 35.0043 30.376 34.8393 30.5142 34.6791C30.6501 34.5188 30.929 34.4772 31.0901 34.5785C31.248 34.6791 31.2873 34.7176 31.2331 34.9532C31.171 35.2015 31.072 35.5982 31.072 35.8755C31.072 36.1599 31.3918 36.0963 31.6306 36.1175C32.1129 36.1599 32.1923 36.6989 32.1522 36.9997C32.1129 37.3022 31.9715 37.944 31.9715 38.3431C31.9715 38.7383 31.9927 39.1374 32.032 39.3636C32.0737 39.582 32.1522 39.8232 32.1302 40.1052C32.1059 40.4847 31.8725 40.5452 31.6306 40.3016C31.3918 40.062 28.0474 36.4969 28.0474 36.4969C27.8251 37.2221 28.7506 38.4586 29.0491 38.8404C29.35 39.2222 29.3303 39.5027 29.0672 39.7643C28.8095 40.0227 28.3075 40.161 28.2093 40.4045C28.1072 40.6402 28.4489 41.3661 29.152 42.2664C29.8528 43.1651 28.3475 43.7685 27.4496 43.9484C26.5454 44.1259 26.5454 43.5053 26.6082 43.1651C26.6679 42.8281 26.6679 42.6231 26.6459 42.3269C26.6263 42.0252 26.3498 41.6073 25.9656 41.1069C25.5862 40.6041 25.5862 40.1469 25.7441 38.9818C25.9035 37.8199 25.8658 37.0783 25.8658 37.0783C25.8658 37.0783 25.4652 37.0948 24.8838 37.0783C24.3056 37.0563 23.8256 36.7208 23.7848 35.3178C23.7447 33.9186 23.7117 30.5774 23.6166 30.2271C23.5239 29.8806 23.1492 29.817 22.9913 29.7706C22.8271 29.7298 22.8193 29.4933 22.978 29.4085C23.3959 29.205 23.8971 28.692 23.7117 28.373C23.524 28.0533 22.7878 28.1193 22.2953 28.3605C21.8011 28.5993 21.2803 29.1241 21.1459 29.2671C21.0163 29.4085 20.904 29.4085 20.9181 29.2561C20.9346 29.0927 20.827 28.3283 20.7634 28.0635C20.6926 27.7964 20.4538 27.2913 20.3729 27.1577C20.2936 27.0234 20.3729 26.9715 20.508 27.0234C20.6377 27.0768 20.9346 27.2001 21.2135 27.274C21.4947 27.3588 21.7626 27.2206 21.8907 26.9582C22.0242 26.6871 22.2851 26.116 22.4186 25.8607C22.5498 25.6085 22.7619 25.6651 22.9363 25.7036C23.1092 25.7444 23.2694 25.8513 23.4289 25.9149C23.5876 25.9809 23.7204 25.9683 23.7769 25.8874C23.8311 25.8104 23.8971 25.7813 23.993 25.5818C24.0864 25.3823 24.2027 25.4773 24.2176 25.5567C24.6953 28.4288 25.9397 28.5608 25.9397 28.5608C25.7527 29.0392 25.3143 29.8021 25.2106 29.9945C25.0983 30.1744 25.0567 30.4305 25.0292 30.6293C25.008 30.8273 25.0983 32.7245 25.2311 33.4198C25.3662 34.1158 25.7912 33.8448 25.9295 33.6319C26.0575 33.4198 26.4747 32.5367 26.4747 32.5367C26.4747 32.5367 26.5776 32.2963 26.5776 32.0968C26.5776 31.8957 26.2319 31.4597 26.1526 31.3238C26.0701 31.1855 25.7786 30.9207 25.7786 30.2522C25.7786 29.586 26.3788 29.1241 26.5949 28.9489C26.8086 28.7737 26.8086 28.531 26.7795 28.3848C26.686 27.8695 26.1384 26.7853 25.8753 26.3698C25.6058 25.9557 25.0857 25.1694 25.0857 25.1694H26.1667L26.8628 23.7238L27.6201 25.1756L28.4112 25.1827ZM28.236 29.5617C28.5887 28.9787 28.7364 28.373 28.7364 28.373H27.7167C27.7167 28.373 27.8801 28.9929 28.236 29.5617ZM27.1739 26.6227C27.2147 26.9212 27.437 27.0352 27.6059 26.948C27.7741 26.8553 27.745 26.6133 27.6201 26.42C27.5007 26.2307 27.2524 26.0194 27.1762 26.0508C27.0984 26.083 27.1471 26.4467 27.1739 26.6227ZM29.1952 26.0508C29.1222 26.0194 28.8606 26.2307 28.7364 26.42C28.617 26.6133 28.5864 26.8553 28.7561 26.948C28.9218 27.0352 29.1355 26.9189 29.1889 26.6227C29.218 26.4467 29.2753 26.083 29.1952 26.0508Z" fill="url(#paint2_linear_62_156)"/>
<path d="M18.7072 22.1059V23.4367H38.2104V22.1059H36.7721V22.3207H20.1455V22.1059H18.7072Z" fill="#DA020E"/>
<path d="M18.7083 16.1253H38.2077V21.4281H18.7083V16.1253Z" fill="#DA020E"/>
<path d="M22.0588 19.8885L23.5523 20.2554L24.3583 18.0094V17.4406L22.0588 19.8885ZM34.3669 21.2125V20.5208H32.9575V19.9395H34.1092V17.3752H33.0478L32.6849 16.6698L32.3306 17.3752H31.2661V19.9395H32.4225V20.5208H29.6501V19.9395H30.8034V17.3752H29.7405L29.3814 16.6698L29.0185 17.3752H27.9587V19.9395H29.1175V20.5208H26.2877V19.9395H27.4434V17.3752H26.3789L26.023 16.6698L25.6577 17.3752H24.5971V19.9395H25.7567V20.5208L23.5177 20.5279L21.2905 20.0078L21.7368 21.2125L34.3669 21.2125Z" fill="#FFE500"/>
<path d="M20.0422 3.79996C21.9245 3.16991 23.3473 2.67891 25.6656 2.47308C24.5972 1.73147 23.6489 1.10378 22.5585 1.10378C21.985 1.10378 21.4948 1.32296 21.3817 1.72362C21.2764 2.08814 21.5639 2.24683 21.6661 2.22247C21.7729 2.19498 21.8491 2.16356 21.8232 2.06457C21.7957 1.96008 21.8766 1.69455 22.2411 1.69455C22.6119 1.69455 22.7518 2.03786 22.7518 2.27354C22.7518 2.50922 22.3778 2.90281 21.6904 2.90281C21.0164 2.90281 20.6707 2.45344 20.6966 2.03786C20.3714 2.51393 20.1821 2.99551 20.0422 3.79996Z" fill="url(#paint3_radial_62_156)"/>
<path d="M6.92579 15.07L8.45457 12.9936C8.54256 12.6118 8.61248 11.567 8.12383 10.8254C7.58962 10.006 6.88572 10.3296 6.67911 10.4247C6.5487 10.4828 6.31145 10.6525 6.16533 10.889C6.16533 10.889 4.69546 12.5073 3.07791 14.0997C2.8493 14.3268 2.59791 14.7416 2.57669 15.1257C2.55705 15.4667 2.69453 15.8092 2.8925 16.0229C3.3348 16.4943 4.10784 16.4754 4.50299 16.169L4.53048 17.4668C4.93743 17.1392 6.40494 15.7314 6.92579 15.07Z" fill="black"/>
<path d="M28.4489 12.0483C37.1534 12.0483 42.1058 20.2186 43.1868 21.6531C45.1068 24.2157 47.4574 26.296 50.181 25.6086C54.1821 24.5849 53.9739 18.6584 53.9739 18.6584C53.0084 17.9631 51.3634 17.0879 48.3639 12.8363C45.4266 8.66864 38.7796 2.4946 28.4489 2.4946C18.1159 2.4946 11.4705 8.66864 8.54021 12.8363C5.53764 17.0879 3.88708 17.9631 2.931 18.6584C2.931 18.6584 2.71496 24.5849 6.71918 25.6086C9.44129 26.296 11.7902 24.2157 13.7134 21.6531C14.7905 20.2186 19.746 12.0483 28.4489 12.0483Z" fill="#FFE500" stroke="black" stroke-width="0.5" stroke-miterlimit="3.863"/>
<path d="M28.4489 11.2726C36.8407 11.2726 41.8317 18.3909 43.6366 20.9595C46.0252 24.1478 48.0474 25.3514 49.9901 24.8572C52.7979 24.1423 53.1467 20.278 53.1844 19.1082V19.0618L53.153 19.0375C52.1631 18.3517 50.5071 17.2149 47.7323 13.2814C46.0771 10.9324 39.793 3.2626 28.4489 3.2626C17.1088 3.2626 10.8192 10.9324 9.16476 13.2814C6.41279 17.1898 4.68211 18.3815 3.7551 19.0179L3.71582 19.0501L3.72054 19.0909C3.75825 20.263 4.10784 24.1478 6.90851 24.8572C8.85366 25.3514 10.8797 24.1478 13.2621 20.9595C15.0654 18.3909 20.0611 11.2726 28.4489 11.2726Z" fill="#DA020E"/>
<path d="M23.8901 5.32615C22.3503 5.65217 21.3361 6.78737 21.6684 8.32636C21.8617 9.15753 22.6033 10.6871 24.9491 10.1882C25.6004 10.0641 25.9523 9.80486 26.2933 9.47884L25.8659 8.98783C25.7048 9.16695 25.4644 9.42777 24.9247 9.54011C23.7895 9.77972 23.1147 8.86135 22.9466 8.06868C22.6968 6.89421 23.381 6.08503 24.1541 5.9177C24.7063 5.79593 25.041 5.94599 25.2531 6.02847H25.2602L25.404 5.4267C25.0316 5.27744 24.5846 5.17845 23.8901 5.32615ZM36.7677 12.0968C37.6484 12.6271 38.6091 12.5367 39.0585 11.7927C39.3853 11.2727 39.3885 10.8406 38.9957 10.0668C38.8943 9.8476 38.7615 9.69048 38.6728 9.49093C38.4992 9.16726 38.3389 8.90252 38.4882 8.65191C38.6531 8.38009 39.0349 8.35809 39.3806 8.56942C39.7428 8.7886 39.8928 9.15077 39.969 9.39823L40.537 9.15312C40.3626 8.68648 40.1041 8.26775 39.5134 7.91816C38.5039 7.3101 37.6829 7.47036 37.3412 8.03993C36.9947 8.61263 37.0929 9.08949 37.3537 9.57813C37.3537 9.57813 37.5156 9.85546 37.6091 10.0448C37.8377 10.4266 38.104 10.9082 37.917 11.209C37.6908 11.5885 37.3011 11.671 36.9217 11.4353C36.4354 11.1289 36.3215 10.7723 36.2201 10.4242L35.5956 10.6913C35.733 11.1705 36.0559 11.6671 36.7677 12.0968ZM30.0445 5.07844L30.0092 7.00159L28.1598 6.97489L28.1873 5.04466L26.9477 5.02188L26.8652 9.74099L28.1072 9.7677L28.1465 7.60416L29.9989 7.63794L29.9636 9.79755L31.2041 9.81641L31.285 5.0973L30.0445 5.07844ZM47.8046 20.0636C47.8133 20.0754 48.5321 20.4304 49.331 19.7132C49.9988 19.113 49.7749 18.2905 49.0773 17.5182L47.7913 16.0892L44.2851 19.2489L45.1139 20.1681L46.5099 18.9158L46.913 19.3707L46.0292 21.3645L47.0874 22.2098L47.8046 20.0636ZM48.4307 17.739C48.7591 18.1035 48.7646 18.5364 48.3828 18.8726C48.0112 19.2151 47.5367 19.1366 47.1761 18.7406L46.9664 18.5057L48.1534 17.4334L48.4307 17.739ZM42.959 16.5334L44.1335 15.5585L45.0754 16.6795L45.5625 16.2734L44.6151 15.1476L45.6089 14.3109L46.5791 15.4665L47.0606 15.0651L45.2883 12.9526L41.6753 15.9866L43.6268 18.3159L44.1139 17.9113L42.959 16.5334ZM41.6046 9.44215L41.1836 9.90409L42.1734 10.7989L39.4301 13.8423L40.3555 14.6743L43.0949 11.6301L44.0722 12.5099L44.4917 12.048L41.6046 9.44215ZM33.5263 9.74131L34.0259 8.30208L35.4157 8.7813L35.6223 8.18267L34.2302 7.70424L34.6536 6.47163L36.0858 6.96263L36.2869 6.36715L33.6779 5.4692L32.1444 9.93849L35.0197 10.9229L35.224 10.3274L33.5263 9.74131ZM18.5849 7.4292L20.3573 10.2542L16.4112 8.78122L15.5329 9.33271L18.035 13.3416L18.9879 12.7414L17.2038 9.88735L21.1908 11.3674L22.0518 10.8277L19.5449 6.82115L18.5849 7.4292ZM13.0653 11.6981L12.2585 12.5638L14.5202 17.0614L15.0725 16.4706L14.4582 15.2741L15.5501 14.0997L16.7883 14.6244L17.698 13.6503L13.0653 11.6981ZM14.9727 13.8396L14.1533 14.7195L13.3112 13.1012L14.9727 13.8396ZM10.3997 14.5521L9.52144 15.5977L11.1626 18.9915L7.64306 17.8391L6.88574 18.7362L10.5019 21.7726L11.051 21.1205L8.49544 18.9695L11.9207 20.0851L12.2813 19.6577L10.648 16.3849L13.2146 18.5367L14.0159 17.5885L10.3997 14.5521Z" fill="#FFE500"/>
<path d="M4.87533 16.9568L4.8714 15.9159C6.64765 14.285 7.4851 12.6462 7.4851 12.6462C7.4851 12.6462 6.83227 12.4003 6.54002 12.0288C6.39547 11.8221 6.33969 11.5401 6.36404 11.3508C6.42061 10.9957 6.69714 10.8158 6.79141 10.7749C6.99567 10.6869 7.37511 10.4874 7.79777 11.0687C8.24792 11.698 8.12929 12.8921 8.06723 13.1671C8.06723 13.1671 7.23921 14.6087 4.87533 16.9568Z" fill="url(#paint4_radial_62_156)"/>
<path d="M6.84099 12.8361C6.60138 13.254 5.99725 14.2627 4.46925 15.6949C4.2155 15.9329 3.58231 16.1348 3.22329 15.7318C3.08895 15.5755 3.00018 15.3563 3.01353 15.1018C3.03082 14.8072 3.20758 14.4646 3.38512 14.3138C3.69308 14.0538 5.00582 12.7285 5.93912 11.686C5.96504 11.8761 6.12844 12.1943 6.12844 12.1943C6.25728 12.3718 6.41441 12.6271 6.84099 12.8361Z" fill="url(#paint5_linear_62_156)"/>
<path d="M28.4018 45.3424C22.8021 45.3424 16.43 42.0381 11.7369 36.6929C11.2592 36.15 10.6512 35.4516 9.20407 35.4516C8.35876 35.4516 7.40033 35.9041 6.76478 36.6041C6.28635 37.1242 5.74978 38.041 5.87862 39.4464C6.0648 41.3664 9.10744 46.3354 14.5305 49.4212C18.9015 51.9076 23.5688 53.1638 28.4018 53.1638" fill="url(#paint6_linear_62_156)"/>
<path d="M28.4018 45.3424C34.0016 45.3424 40.3736 42.0381 45.0668 36.6929C45.5444 36.15 46.1525 35.4516 47.5995 35.4516C48.4449 35.4516 49.4033 35.9041 50.0388 36.6041C50.5173 37.1242 51.0538 38.041 50.925 39.4464C50.7388 41.3664 47.6962 46.3354 42.2732 49.4212C37.9021 51.9076 33.2348 53.1638 28.4018 53.1638" fill="url(#paint7_linear_62_156)"/>
<path d="M43.6366 20.9595C46.0252 24.1478 48.0474 25.3514 49.9902 24.8572C52.7979 24.1423 53.1467 20.278 53.1844 19.1082V19.0618L53.153 19.0375C52.1631 18.3517 50.5071 17.2149 47.7323 13.2814" fill="url(#paint8_linear_62_156)"/>
<path d="M13.2691 20.9595C10.8804 24.1478 8.8583 25.3514 6.91551 24.8572C4.10776 24.1423 3.75896 20.278 3.72125 19.1082V19.0618L3.75267 19.0375C4.74253 18.3517 6.39858 17.2149 9.17333 13.2814" fill="url(#paint9_linear_62_156)"/>
<path d="M36.8635 3.79996C34.9811 3.16991 33.5584 2.67891 31.2401 2.47308C32.3085 1.73147 33.2568 1.10378 34.3472 1.10378C34.9207 1.10378 35.4109 1.32296 35.524 1.72362C35.6293 2.08814 35.3417 2.24683 35.2396 2.22247C35.1328 2.19498 35.0566 2.16356 35.0825 2.06457C35.11 1.96008 35.0291 1.69455 34.6646 1.69455C34.2937 1.69455 34.1539 2.03786 34.1539 2.27354C34.1539 2.50922 34.5279 2.90281 35.2153 2.90281C35.8893 2.90281 36.235 2.45344 36.209 2.03786C36.5343 2.51393 36.7236 2.99551 36.8635 3.79996Z" fill="url(#paint10_radial_62_156)"/>
<path d="M28.5372 1.32916C28.4783 1.68896 28.0643 2.03385 27.6456 2.03385C27.2261 2.03385 27.1004 1.96629 27.1004 1.96629C27.0367 2.06527 26.981 2.14148 26.915 2.24832C27.2952 2.23338 28.1774 2.20904 28.531 2.20904C28.8837 2.20904 29.8618 2.2601 30.0723 2.27503C29.7321 1.47764 29.0762 0.373872 28.6229 0.373872C28.6072 0.373872 28.5875 0.372345 28.5632 0.372345C28.4571 0.372345 28.0897 0.690871 27.8929 0.970559C27.6344 1.338 28.5372 1.32916 28.5372 1.32916Z" fill="url(#paint11_radial_62_156)"/>
<path d="M52.0303 16.9568L52.0342 15.9159C50.258 14.285 49.4205 12.6462 49.4205 12.6462C49.4205 12.6462 50.0734 12.4003 50.3656 12.0288C50.5102 11.8221 50.566 11.5401 50.5416 11.3508C50.485 10.9957 50.2085 10.8158 50.1142 10.7749C49.91 10.6869 49.5305 10.4874 49.1079 11.0687C48.6577 11.698 48.7764 12.8921 48.8384 13.1671C48.8384 13.1671 49.6664 14.6087 52.0303 16.9568Z" fill="url(#paint12_radial_62_156)"/>
<path d="M50.0647 12.8361C50.3043 13.254 50.9084 14.2627 52.4364 15.6949C52.6902 15.9329 53.3234 16.1348 53.6824 15.7318C53.8167 15.5755 53.9055 15.3563 53.8922 15.1018C53.8749 14.8072 53.6981 14.4646 53.5206 14.3138C53.2126 14.0538 51.8999 12.7285 50.9666 11.686C50.9407 11.8761 50.7772 12.1943 50.7772 12.1943C50.6484 12.3718 50.4913 12.6271 50.0647 12.8361Z" fill="url(#paint13_linear_62_156)"/>
<path d="M17.8779 16.5943V38.7027L28.4489 45.495L39.0192 38.7027L39.0349 16.6281C38.6963 16.3295 37.9932 15.6751 37.4425 15.3326H19.4067C18.9502 15.6531 18.0358 16.4246 17.8779 16.5943Z" stroke="black" stroke-width="0.5" stroke-miterlimit="3.863"/>
<path d="M36.1992 53.1717C35.1614 53.4466 34.4198 53.6792 32.6718 53.8913C32.6718 53.8913 32.7276 54.068 33.1078 54.0539C33.2532 54.0445 33.2728 54.0083 33.3231 53.9997C33.4354 53.9793 33.598 54.0932 33.5815 54.2825C33.5643 54.4161 33.4527 54.5818 33.0646 54.5818C32.6765 54.5818 32.2248 54.266 31.9962 53.9706C31.9962 53.9706 31.7644 54.0248 31.5233 54.0366C31.5233 54.0366 32.2704 55.0799 33.7379 55.0799C35.3491 55.0799 35.9493 53.6336 36.1992 53.1717Z" fill="url(#paint14_radial_62_156)"/>
<path d="M1 30.4781C1 27.8109 3.16433 25.6419 5.83459 25.6419C8.50564 25.6419 10.6684 27.8109 10.6684 30.4781C10.6684 33.1499 8.50564 35.3142 5.83459 35.3142C3.16433 35.3142 1 33.1499 1 30.4781Z" fill="#FFE500" stroke="black" stroke-width="0.5" stroke-miterlimit="3.863"/>
<path d="M2.10675 30.2982C2.10675 28.2761 3.77558 26.6315 5.83452 26.6315C7.89406 26.6315 9.56167 28.2761 9.56167 30.2982C9.56167 32.3239 7.89406 33.9649 5.83452 33.9649C3.77558 33.9649 2.10675 32.3239 2.10675 30.2982Z" fill="url(#paint15_radial_62_156)"/>
<path d="M6.86134 33.8019C6.64922 33.8694 6.55731 33.721 6.46068 33.6141C6.08438 33.1812 5.98775 32.0288 5.98775 31.8764C5.98775 31.7232 6.04431 31.555 6.15194 31.5511C7.05931 31.5338 7.70743 31.2707 8.30214 30.7765C8.89605 30.291 9.15372 29.734 9.20636 29.635C9.25821 29.5251 9.38155 29.5447 9.40433 29.6971C9.42947 29.8244 9.4774 30.053 9.4774 30.3004C9.4774 31.9612 8.35791 33.3179 6.86134 33.8019ZM5.90369 33.9519C5.87776 33.9519 5.8487 33.9551 5.82435 33.9551C5.1558 33.9551 4.41969 33.6997 3.98368 33.4515C3.53196 33.2056 3.36227 32.0461 3.36227 31.46C3.36227 29.5518 4.14473 28.4158 4.27199 28.1927C4.39612 27.9664 4.67579 27.9429 4.88084 27.9979C5.09295 28.0591 5.16837 28.0961 5.41269 28.1683C5.53996 28.21 5.79842 28.2626 5.99246 28.2972C6.18651 28.3435 6.39548 28.3844 6.26978 28.7465C6.14566 29.1095 5.723 29.9815 5.68058 31.0153C5.63973 31.951 5.76385 32.8804 5.97518 33.4515C6.11423 33.8207 6.11423 33.959 5.90369 33.9519ZM3.14151 29.5958C2.96318 29.5015 2.74871 29.0411 2.67644 28.9068C2.62773 28.8102 2.62773 28.5336 2.69765 28.4158C2.99618 27.8934 3.41962 27.4094 3.96482 27.1573C4.0316 27.1282 4.12508 27.1227 4.12508 27.283C4.12508 27.3686 4.17144 27.5021 4.17301 27.587C4.17301 27.6726 4.20915 27.8478 4.10074 27.9861C3.98682 28.1251 3.49896 28.9901 3.37405 29.4748C3.35363 29.5832 3.32063 29.6971 3.14151 29.5958ZM3.04096 32.658C2.53503 32.1584 2.17444 31.2534 2.17444 30.3004C2.17444 29.9304 2.22943 29.5761 2.32763 29.2399C2.32763 29.2399 2.41797 29.089 2.49654 29.2171C2.55703 29.3114 2.6403 29.4064 2.70786 29.5321C2.78328 29.6578 3.17451 29.9556 3.14151 30.1983C3.00482 31.09 3.12738 32.2747 3.16979 32.4742C3.2075 32.6714 3.15329 32.7555 3.04096 32.658ZM4.63808 26.8462C5.01281 26.722 5.41269 26.6521 5.82435 26.6521C6.45047 26.6521 7.05852 26.766 7.56602 27.0897C7.69643 27.1745 7.73336 27.2735 7.73336 27.4204C7.73336 27.8989 6.98546 28.0591 6.49053 28.0591C5.99246 28.0591 5.37969 27.8619 4.94604 27.7245C4.51396 27.5893 4.41969 27.3395 4.41969 27.2256C4.41969 27.1164 4.50374 26.8902 4.63808 26.8462ZM8.0146 27.378C8.08138 27.4322 8.25814 27.5752 8.25814 27.5752C8.60695 27.8934 8.92197 28.2563 9.10502 28.6915C9.33363 29.2399 8.62423 30.0703 8.41604 30.262C7.47646 31.1442 6.88805 31.1277 6.55496 31.1756C6.22186 31.2243 6.00582 31.0153 6.01446 30.7647C6.03567 30.031 6.5581 28.7662 6.70815 28.5281C6.80399 28.3749 6.97054 28.2799 6.97054 28.2799C7.31934 28.1833 7.65794 28.0379 7.83313 27.8384C8.00439 27.6357 8.0146 27.378 8.0146 27.378ZM5.86048 26.4141C3.61444 26.4141 1.79578 28.2335 1.79578 30.478C1.79578 32.724 3.61444 34.5427 5.86048 34.5427C8.10495 34.5427 9.92754 32.724 9.92754 30.478C9.92754 28.2335 8.10495 26.4141 5.86048 26.4141Z" fill="#DA020E"/>
<path d="M46.3308 30.4686C46.3308 27.8015 48.4951 25.6403 51.1654 25.6403C53.8372 25.6403 56 27.8015 56 30.4686C56 33.1405 53.8372 35.3056 51.1654 35.3056C48.4951 35.3056 46.3308 33.1405 46.3308 30.4686Z" fill="#FFE500" stroke="black" stroke-width="0.5" stroke-miterlimit="3.863"/>
<path d="M53.9967 32.6413C53.8907 32.7458 53.831 32.6546 53.8757 32.459C53.9127 32.265 54.036 31.0764 53.8985 30.1847C53.8647 29.9428 54.2583 29.6458 54.3306 29.5185C54.4029 29.3936 54.4854 29.2962 54.5435 29.2051C54.6244 29.0731 54.7101 29.2208 54.7101 29.2208C54.8138 29.561 54.864 29.9168 54.864 30.2853C54.864 31.2414 54.4987 32.1432 53.9967 32.6413ZM53.6691 29.462C53.5434 28.9788 53.0524 28.11 52.9417 27.9717C52.8301 27.8381 52.8655 27.6606 52.867 27.575C52.867 27.4901 52.9157 27.3542 52.9157 27.2662C52.9157 27.113 53.0084 27.1162 53.0744 27.1452C53.6228 27.3974 54.0439 27.8743 54.3455 28.4014C54.4123 28.5216 54.4139 28.7966 54.3644 28.8901C54.2937 29.0252 54.0808 29.4855 53.8985 29.583C53.7163 29.6827 53.6896 29.5665 53.6691 29.462ZM53.0587 33.4379C52.6219 33.6822 51.8858 33.9399 51.2141 33.9399H51.1363C50.9297 33.9454 50.925 33.8016 51.0664 33.434C51.2715 32.8676 51.3995 31.9343 51.3571 31.001C51.3147 29.9624 50.8975 29.0998 50.7679 28.7345C50.6422 28.3723 50.852 28.3283 51.0484 28.2875C51.2432 28.249 51.5009 28.1924 51.6289 28.1516C51.8693 28.0785 51.9471 28.0416 52.1592 27.9811C52.3658 27.9277 52.6439 27.9544 52.7704 28.1752C52.8945 28.4014 53.6785 29.5445 53.6785 31.448C53.6785 32.0309 53.5073 33.1889 53.0587 33.4379ZM50.181 33.7867C48.6806 33.3004 47.5634 31.9445 47.5634 30.2853C47.5634 30.041 47.6113 29.8147 47.631 29.6827C47.6601 29.5303 47.7748 29.5052 47.8321 29.6175C47.8847 29.7196 48.1455 30.2759 48.7363 30.7629C49.3349 31.2531 49.9768 31.521 50.8897 31.5399C51.0004 31.5454 51.0523 31.708 51.0523 31.8643C51.0523 32.0191 50.9588 33.1692 50.5841 33.599C50.4843 33.7089 50.3884 33.8598 50.181 33.7867ZM47.9389 28.6787C48.1173 28.2435 48.4339 27.8743 48.7827 27.5632C48.7827 27.5632 48.9555 27.4171 49.0223 27.366C49.0223 27.366 49.0364 27.626 49.21 27.8208C49.3829 28.0173 49.7183 28.1712 50.0671 28.2631C50.0671 28.2631 50.2313 28.3629 50.3295 28.5161C50.4843 28.7471 51.0028 30.0103 51.0256 30.7496C51.0319 31.001 50.8182 31.2099 50.4843 31.162C50.1496 31.1172 49.5628 31.1274 48.624 30.2499C48.4166 30.0575 47.7072 29.2286 47.9389 28.6787ZM49.4724 27.0761C49.987 26.7509 50.5872 26.6369 51.2141 26.6369C51.6289 26.6369 52.0233 26.7077 52.4012 26.8318C52.5402 26.875 52.6219 27.0989 52.6219 27.2112C52.6219 27.322 52.53 27.575 52.0948 27.7109C51.6611 27.8444 51.0507 28.044 50.5534 28.044C50.053 28.044 49.3075 27.8813 49.3075 27.4053C49.3075 27.2615 49.3436 27.157 49.4724 27.0761ZM51.1756 26.4036C48.9319 26.4036 47.1125 28.2239 47.1125 30.4628C47.1125 32.7144 48.9319 34.5275 51.1756 34.5275C53.4232 34.5275 55.2427 32.7144 55.2427 30.4628C55.2427 28.2239 53.4232 26.4036 51.1756 26.4036Z" fill="#DA020E"/>
<path d="M47.4928 30.2803C47.4928 28.2582 49.1616 26.6137 51.2206 26.6137C53.2801 26.6137 54.9477 28.2582 54.9477 30.2803C54.9477 32.3061 53.2801 33.947 51.2206 33.947C49.1616 33.947 47.4928 32.3061 47.4928 30.2803Z" fill="url(#paint16_radial_62_156)"/>
<defs>
<filter id="filter0_f_62_156" x="6.69504" y="1.43137" width="43.5227" height="56.1897" filterUnits="userSpaceOnUse" color-interpolation-filters="sRGB">
<feFlood flood-opacity="0" result="BackgroundImageFix"/>
<feBlend mode="normal" in="SourceGraphic" in2="BackgroundImageFix" result="shape"/>
<feGaussianBlur stdDeviation="3.09142" result="effect1_foregroundBlur_62_156"/>
</filter>
<radialGradient id="paint0_radial_62_156" cx="0" cy="0" r="1" gradientUnits="userSpaceOnUse" gradientTransform="translate(28.5825 54.7786) scale(1.89437 1.40822)">
<stop stop-color="#FFE500"/>
<stop offset="0.5" stop-color="#FFE500"/>
<stop offset="1" stop-color="#E15007"/>
</radialGradient>
<radialGradient id="paint1_radial_62_156" cx="0" cy="0" r="1" gradientUnits="userSpaceOnUse" gradientTransform="translate(23.3787 54.1258) scale(2.00313 1.80108)">
<stop stop-color="#FFE500"/>
<stop offset="0.5" stop-color="#FFE500"/>
<stop offset="1" stop-color="#E15007"/>
</radialGradient>
<linearGradient id="paint2_linear_62_156" x1="27.9035" y1="23.6563" x2="27.9035" y2="34.1726" gradientUnits="userSpaceOnUse">
<stop stop-color="#8F0904"/>
<stop offset="0.249601" stop-color="#B40509"/>
<stop offset="1" stop-color="#DA020E"/>
</linearGradient>
<radialGradient id="paint3_radial_62_156" cx="0" cy="0" r="1" gradientUnits="userSpaceOnUse" gradientTransform="translate(22.4319 2.57003) scale(2.29018 2.18058)">
<stop stop-color="#FFE500"/>
<stop offset="0.5" stop-color="#FFE500"/>
<stop offset="1" stop-color="#E15007"/>
</radialGradient>
<radialGradient id="paint4_radial_62_156" cx="0" cy="0" r="1" gradientUnits="userSpaceOnUse" gradientTransform="translate(5.78407 14.1952) rotate(-60.273) scale(3.57362 3.14364)">
<stop stop-color="#FFE500"/>
<stop offset="0.5" stop-color="#FFE500"/>
<stop offset="1" stop-color="#E15007"/>
</radialGradient>
<linearGradient id="paint5_linear_62_156" x1="5.30389" y1="12.7735" x2="6.17258" y2="13.7283" gradientUnits="userSpaceOnUse">
<stop stop-color="#FFE500"/>
<stop offset="0.5" stop-color="#FFE500"/>
<stop offset="1" stop-color="#E15007"/>
</linearGradient>
<linearGradient id="paint6_linear_62_156" x1="7.2771" y1="36.4755" x2="13.2775" y2="43.3625" gradientUnits="userSpaceOnUse">
<stop stop-color="#740703"/>
<stop offset="1" stop-color="#DA020E" stop-opacity="0"/>
</linearGradient>
<linearGradient id="paint7_linear_62_156" x1="49.5265" y1="36.4755" x2="43.5261" y2="43.3625" gradientUnits="userSpaceOnUse">
<stop stop-color="#740703"/>
<stop offset="1" stop-color="#DA020E" stop-opacity="0"/>
</linearGradient>
<linearGradient id="paint8_linear_62_156" x1="51.753" y1="23.8017" x2="48.5056" y2="20.7461" gradientUnits="userSpaceOnUse">
<stop stop-color="#740703"/>
<stop offset="1" stop-color="#DA020E" stop-opacity="0"/>
</linearGradient>
<linearGradient id="paint9_linear_62_156" x1="5.1527" y1="23.8017" x2="8.59107" y2="20.1732" gradientUnits="userSpaceOnUse">
<stop stop-color="#740703"/>
<stop offset="1" stop-color="#DA020E" stop-opacity="0"/>
</linearGradient>
<radialGradient id="paint10_radial_62_156" cx="0" cy="0" r="1" gradientUnits="userSpaceOnUse" gradientTransform="translate(34.4738 2.57003) rotate(180) scale(2.29018 2.18058)">
<stop stop-color="#FFE500"/>
<stop offset="0.5" stop-color="#FFE500"/>
<stop offset="1" stop-color="#E15007"/>
</radialGradient>
<radialGradient id="paint11_radial_62_156" cx="0" cy="0" r="1" gradientUnits="userSpaceOnUse" gradientTransform="translate(28.4528 1.50937) scale(1.7302 1.65377)">
<stop stop-color="#FFE500"/>
<stop offset="0.5" stop-color="#FFE500"/>
<stop offset="1" stop-color="#E15007"/>
</radialGradient>
<radialGradient id="paint12_radial_62_156" cx="0" cy="0" r="1" gradientUnits="userSpaceOnUse" gradientTransform="translate(51.1216 14.1952) rotate(-119.727) scale(3.57362 3.14363)">
<stop stop-color="#FFE500"/>
<stop offset="0.5" stop-color="#FFE500"/>
<stop offset="1" stop-color="#E15007"/>
</radialGradient>
<linearGradient id="paint13_linear_62_156" x1="51.6018" y1="12.7735" x2="50.7331" y2="13.7283" gradientUnits="userSpaceOnUse">
<stop stop-color="#FFE500"/>
<stop offset="0.5" stop-color="#FFE500"/>
<stop offset="1" stop-color="#E15007"/>
</linearGradient>
<radialGradient id="paint14_radial_62_156" cx="0" cy="0" r="1" gradientUnits="userSpaceOnUse" gradientTransform="translate(33.8612 54.1258) rotate(180) scale(2.00313 1.80108)">
<stop stop-color="#FFE500"/>
<stop offset="0.5" stop-color="#FFE500"/>
<stop offset="1" stop-color="#E15007"/>
</radialGradient>
<radialGradient id="paint15_radial_62_156" cx="0" cy="0" r="1" gradientUnits="userSpaceOnUse" gradientTransform="translate(5.83421 30.2982) scale(3.72746 3.66668)">
<stop stop-color="#DA030E" stop-opacity="0"/>
<stop offset="0.875" stop-color="#DA020E" stop-opacity="0"/>
<stop offset="1" stop-color="#DA020E"/>
</radialGradient>
<radialGradient id="paint16_radial_62_156" cx="0" cy="0" r="1" gradientUnits="userSpaceOnUse" gradientTransform="translate(51.2203 30.2803) scale(3.72746 3.66668)">
<stop stop-color="#DA030E" stop-opacity="0"/>
<stop offset="0.875" stop-color="#DA020E" stop-opacity="0"/>
<stop offset="1" stop-color="#DA020E"/>
</radialGradient>
</defs>
</svg>
