<svg width="47" height="65" viewBox="0 0 47 65" fill="none" xmlns="http://www.w3.org/2000/svg">
<g clip-path="url(#clip0_62_203)">
<path d="M39.008 15.2312C39.1458 15.0252 39.2291 14.8002 39.2291 14.571C39.2291 14.5066 39.2233 14.4421 39.2119 14.378C39.166 14.1212 39.0257 13.9031 38.8206 13.7482C38.89 13.6029 38.9342 13.4464 38.9342 13.2844C38.9342 12.8322 38.65 12.4295 38.2368 12.2655C38.4195 12.0656 38.5254 11.81 38.5254 11.5353C38.5254 11.0163 38.1651 10.5838 37.6682 10.4705C37.7393 10.323 37.7875 10.166 37.7875 10.0006C37.7875 9.39538 37.2904 8.90303 36.6798 8.90303C36.6445 8.90303 36.6091 8.91377 36.5736 8.91731C36.5987 8.82533 36.6157 8.73163 36.6157 8.63531C36.6157 8.02995 36.1186 7.53748 35.508 7.53748C35.394 7.53748 35.2827 7.56124 35.1745 7.59552C35.1727 6.99153 34.6766 6.50077 34.0666 6.50077C33.8826 6.50077 33.7094 6.55665 33.5499 6.642C33.3951 6.20918 32.9884 5.90021 32.5178 5.90021C32.182 5.90021 31.8751 6.05572 31.665 6.31121C31.4643 6.13525 31.2074 6.0315 30.9369 6.0315C30.9369 6.0315 30.8925 6.03653 30.8594 6.04053C30.8764 5.9642 30.8873 5.88673 30.8873 5.80755C30.8873 5.20207 30.3901 4.7096 29.7791 4.7096C29.6381 4.7096 29.502 4.74593 29.3711 4.79815C29.3681 4.50907 29.2542 4.23758 29.0477 4.03282C28.8385 3.82544 28.5601 3.71129 28.2641 3.71129C28.0702 3.71129 27.8881 3.77322 27.7209 3.8684C27.5655 3.43911 27.1603 3.13266 26.6912 3.13266C26.4383 3.13266 26.2016 3.2203 26.0064 3.37364C25.8054 3.05816 25.4595 2.85363 25.0782 2.85363C24.9798 2.85363 24.8832 2.87592 24.7874 2.90197C24.6057 2.71115 24.3845 2.55667 24.1357 2.4624C24.1357 2.4624 24.0772 2.44389 24.0244 2.42709C24.0244 2.32163 24.0244 1.99484 24.0244 1.85612C24.1829 1.85612 24.6713 1.85612 24.6713 1.85612C24.7309 1.85612 24.7792 1.80836 24.7792 1.74929V0.989443C24.7792 0.930484 24.7309 0.882608 24.6713 0.882608C24.6713 0.882608 24.1829 0.882608 24.0244 0.882608C24.0244 0.731324 24.0244 0.316323 24.0244 0.316323C24.0244 0.257364 23.9762 0.209488 23.9165 0.209488H23.1085C23.0488 0.209488 23.0006 0.257364 23.0006 0.316323C23.0006 0.316323 23.0006 0.731324 23.0006 0.882608C22.8422 0.882608 22.3546 0.882608 22.3546 0.882608C22.2949 0.882608 22.2467 0.930369 22.2467 0.989443V1.74929C22.2467 1.80836 22.2949 1.85612 22.3546 1.85612C22.3546 1.85612 22.8423 1.85612 23.0006 1.85612C23.0006 1.99484 23.0006 2.32163 23.0006 2.42709C22.9464 2.44435 22.8896 2.4624 22.8896 2.4624C22.6409 2.55655 22.4197 2.71092 22.2375 2.90197C22.1418 2.8758 22.0451 2.85352 21.9469 2.85352C21.5654 2.85352 21.2195 3.05805 21.0186 3.37353C20.8236 3.22007 20.5865 3.13255 20.3338 3.13255C19.865 3.13255 19.4596 3.439 19.3042 3.86817C19.1374 3.7731 18.9555 3.71117 18.761 3.71117C18.1539 3.71117 17.6604 4.19782 17.6542 4.79804C17.5229 4.74582 17.3867 4.70948 17.246 4.70948C16.6349 4.70948 16.1377 5.20207 16.1377 5.80743C16.1377 5.88616 16.1489 5.96374 16.1661 6.04041C16.1325 6.03653 16.088 6.03139 16.088 6.03139C15.8181 6.03139 15.5613 6.13514 15.3601 6.31099C15.1507 6.0555 14.8443 5.89998 14.5081 5.89998C14.036 5.89998 13.6296 6.20906 13.4763 6.64189C13.3155 6.55642 13.142 6.50055 12.9582 6.50055C12.3485 6.50055 11.8527 6.99119 11.8508 7.59507C11.7426 7.56079 11.6321 7.53725 11.5179 7.53725C10.9069 7.53725 10.4099 8.02983 10.4099 8.63508C10.4099 8.73163 10.4266 8.82522 10.4514 8.91708C10.4158 8.91365 10.3804 8.9028 10.3453 8.9028C9.73438 8.9028 9.23743 9.39516 9.23743 10.0004C9.23743 10.1661 9.28564 10.3231 9.35725 10.4703C8.86031 10.5837 8.50014 11.0161 8.50014 11.5349C8.50014 11.8095 8.60589 12.0651 8.78834 12.2652C8.37547 12.4294 8.09153 12.8319 8.09153 13.2841C8.09153 13.446 8.13524 13.6024 8.20398 13.7478C7.99916 13.9028 7.85903 14.1212 7.81313 14.3781C7.80171 14.4421 7.79606 14.5065 7.79606 14.5708C7.79606 14.8 7.87922 15.025 8.01703 15.231C7.86976 15.3818 7.78845 15.5721 7.78845 15.7916C7.78845 15.797 7.78845 15.8025 7.78857 15.8081C7.79606 16.237 8.086 16.6542 8.35229 16.8604C8.85177 17.247 9.39577 17.3001 9.86043 17.0264C10.2978 17.3359 10.8435 17.4479 11.366 17.3397C11.3608 17.3727 11.3437 17.404 11.3437 17.4373C11.3437 17.5341 11.3652 17.631 11.4084 17.7215C11.4862 17.8868 11.6213 18.0112 11.7881 18.0713C11.8924 18.1088 12.0025 18.1154 12.1104 18.0976C12.0994 18.1155 12.0902 18.1346 12.0829 18.1547C12.0509 18.2428 12.0573 18.3454 12.1006 18.4363C12.1409 18.5214 12.2123 18.5861 12.3015 18.618C12.3252 18.6265 12.3493 18.6298 12.3737 18.6318L12.2182 19.2609C12.2105 19.2923 12.2249 19.325 12.2534 19.3408L12.8911 19.6925C12.8363 19.7612 12.805 19.8461 12.805 19.934C12.805 19.9886 12.8165 20.044 12.841 20.0966C12.9377 20.2988 13.1548 20.3835 13.3463 20.2951C16.5256 18.8088 19.9458 18.0553 23.5125 18.0553C27.0793 18.0553 30.4997 18.8088 33.6788 20.2949C33.8717 20.384 34.0885 20.299 34.1836 20.0972C34.2086 20.0442 34.2205 19.9883 34.2205 19.9332C34.2205 19.8455 34.1893 19.761 34.1341 19.6925L34.7713 19.3407C34.7997 19.325 34.8141 19.2923 34.8065 19.261L34.6509 18.6286C34.7663 18.6148 34.872 18.5485 34.9253 18.4362C34.9501 18.3838 34.9627 18.3275 34.9627 18.2723C34.9627 18.232 34.9559 18.1923 34.9424 18.1553C34.9324 18.1282 34.918 18.1038 34.9018 18.0807C35.1907 18.1293 35.4868 17.9964 35.6175 17.7212C35.66 17.6313 35.6814 17.535 35.6814 17.4387C35.6814 17.4048 35.6641 17.3732 35.6587 17.3396C36.1812 17.4478 36.7275 17.3358 37.1652 17.0264C37.6294 17.2998 38.1733 17.2468 38.673 16.8605C38.9392 16.6544 39.2289 16.2372 39.2364 15.8084C39.2365 15.8029 39.2365 15.7974 39.2365 15.7919C39.2367 15.5724 39.1554 15.3822 39.008 15.2312ZM13.7947 10.4199C13.7947 10.4445 13.7988 10.4683 13.8005 10.4926C13.2617 10.6113 12.6474 10.7704 12.1481 10.9648C11.7924 11.1035 11.4969 11.2773 11.2562 11.4528C11.7969 10.3127 12.7125 9.51045 14.2123 8.73735C14.2279 8.98621 14.326 9.21679 14.4935 9.39984C14.0795 9.56358 13.7947 9.96647 13.7947 10.4199ZM22.6823 6.73741C22.5859 6.89167 22.5302 7.06569 22.5302 7.24725C22.5302 7.42904 22.5859 7.60329 22.6823 7.75766C22.6823 7.78131 22.6823 8.02732 22.6823 8.23265C20.9192 7.98093 18.6601 8.14867 16.898 9.0542C17.7402 6.96617 19.6914 5.31325 22.5307 5.47516C22.5313 5.65581 22.5865 5.8288 22.6823 5.98214C22.6823 6.02213 22.6823 6.69754 22.6823 6.73741ZM24.3431 8.23265C24.3431 8.02732 24.3431 7.78131 24.3431 7.75766C24.4391 7.60386 24.4949 7.42973 24.4949 7.24725C24.4949 7.06489 24.4391 6.89098 24.3431 6.73741C24.3431 6.69742 24.3431 6.02213 24.3431 5.98214C24.4385 5.82948 24.4939 5.6566 24.4945 5.47516C27.3337 5.31336 29.2848 6.96617 30.1271 9.0542C28.365 8.14867 26.106 7.98093 24.3431 8.23265ZM34.877 10.9648C34.3768 10.7702 33.7634 10.6111 33.2254 10.4926C33.227 10.4683 33.2311 10.4445 33.2311 10.4199C33.2311 9.9667 32.9462 9.56369 32.532 9.39995C32.6994 9.21691 32.7974 8.98633 32.8131 8.73712C34.3128 9.51033 35.2283 10.3125 35.7688 11.4527C35.5281 11.2772 35.2325 11.1035 34.877 10.9648Z" fill="#00529F"/>
<path d="M36.0988 16.3422C35.9364 16.3513 35.7742 16.3229 35.6297 16.2439C35.348 16.0901 35.1761 15.7985 35.1761 15.4849C35.1761 15.4649 35.1779 15.4447 35.1791 15.4246C35.2825 15.3005 35.3594 15.1604 35.4003 15.0032C35.4243 14.9113 35.4363 14.8183 35.4363 14.7258C35.4363 14.5317 35.3838 14.3403 35.2815 14.1686C35.1301 13.9143 34.8877 13.7339 34.5988 13.6605C34.0053 13.5088 33.3973 13.8648 33.2431 14.4539C33.2429 14.4549 33.2261 14.5727 33.2167 14.6385C33.0013 14.9075 32.6505 15.0277 32.3136 14.942C31.9378 14.8462 31.6837 14.5213 31.665 14.1471C32.4599 14.3003 32.9465 14.0059 33.1445 13.2412C33.1858 13.0822 33.2065 12.9351 33.2065 12.7998C33.2065 12.3875 33.007 12.0863 32.6187 11.8796C32.619 11.8671 32.62 11.8542 32.62 11.8419C32.62 11.6869 32.5885 11.5495 32.5401 11.4227C32.8803 11.2827 33.1309 10.9868 33.2056 10.6354C33.7352 10.7523 34.3355 10.9084 34.824 11.0985C35.2781 11.2755 35.6318 11.5142 35.8936 11.7361C36.1647 12.4107 36.3219 13.2007 36.4023 14.162C36.1301 14.278 35.9094 14.5357 35.7509 14.9452C35.6717 15.152 35.632 15.3415 35.632 15.5144C35.632 15.853 35.792 16.1252 36.0988 16.3422Z" fill="#EE324E"/>
<path d="M29.7948 13.671C29.5956 13.9891 29.2181 14.1534 28.8423 14.0575C28.4699 13.9628 28.2049 13.6327 28.1893 13.2526C28.2731 13.0957 28.3215 12.9217 28.3215 12.7429C28.3215 12.1347 27.8223 11.6398 27.2086 11.6398C26.5946 11.6398 26.0951 12.1347 26.0951 12.7429C26.0951 12.8344 26.1129 12.9237 26.1359 13.0113C26.0184 13.3722 25.6875 13.6147 25.3043 13.6147C24.9166 13.6147 24.5957 13.3603 24.4839 13.003C25.2855 12.9529 25.6815 12.5491 25.6815 11.7628C25.6815 11.0938 25.3979 10.704 24.8218 10.5682C24.7265 10.1695 24.49 9.90773 24.1217 9.78044C24.3523 9.59854 24.4952 9.32317 24.4952 9.02288C24.4952 8.84006 24.4393 8.66627 24.3433 8.51305C24.3433 8.50276 24.3433 8.44986 24.3433 8.37696C26.132 8.11724 28.4462 8.29378 30.2048 9.25541C30.3793 9.73371 30.4975 10.2317 30.5549 10.7341C30.3558 10.8322 30.1943 10.996 30.0732 11.2236C29.4818 11.2139 29.1114 11.5241 28.9431 12.1713C28.9021 12.3298 28.8813 12.4765 28.8813 12.6118C28.8812 13.1283 29.186 13.476 29.7948 13.671Z" fill="#EE324E"/>
<path d="M22.9035 9.78045C22.5353 9.90762 22.2988 10.1696 22.2035 10.5682C21.6271 10.704 21.3435 11.0938 21.3435 11.7628C21.3435 12.5491 21.7395 12.9528 22.542 13.003C22.4293 13.3603 22.1083 13.6147 21.7206 13.6147C21.343 13.6147 21.0051 13.3667 20.89 13.0113C20.9126 12.9231 20.9299 12.8335 20.9299 12.7429C20.9299 12.4481 20.8141 12.1712 20.6039 11.9629C20.3937 11.7544 20.1141 11.6397 19.8166 11.6397C19.2024 11.6397 18.703 12.1346 18.703 12.7428C18.703 12.9196 18.7519 13.0937 18.8359 13.2525C18.8207 13.6326 18.5554 13.9626 18.1826 14.0574C17.8069 14.1534 17.4293 13.989 17.2306 13.6709C17.8395 13.4759 18.1442 13.1282 18.1442 12.6115C18.1442 12.4762 18.1235 12.3295 18.0825 12.1712C17.914 11.524 17.5437 11.2138 16.9523 11.2235C16.8319 10.9961 16.6701 10.8325 16.4701 10.7339C16.5276 10.2316 16.6459 9.7336 16.8202 9.25541C18.579 8.29366 20.8933 8.11724 22.6822 8.37696C22.6822 8.44986 22.6822 8.50276 22.6822 8.51305C22.5858 8.66696 22.5301 8.84087 22.5301 9.02289C22.5302 9.32317 22.673 9.59843 22.9035 9.78045Z" fill="#EE324E"/>
<path d="M14.4067 11.8796C14.0186 12.086 13.8195 12.387 13.8195 12.7995C13.8195 12.935 13.8403 13.0822 13.8816 13.2412C14.0792 14.0062 14.5658 14.3007 15.3604 14.1471C15.3425 14.5212 15.0881 14.846 14.7114 14.942C14.3747 15.0277 14.0234 14.9074 13.8087 14.6385C13.8004 14.5811 13.7823 14.4553 13.7823 14.4553C13.6285 13.8648 13.0204 13.5087 12.4263 13.6604C12.1381 13.7338 11.896 13.914 11.7446 14.1679C11.642 14.3399 11.5896 14.5318 11.5896 14.7263C11.5896 14.8185 11.6013 14.9114 11.6252 15.0029C11.6657 15.1598 11.7427 15.2999 11.8464 15.4244C11.8478 15.4442 11.8493 15.464 11.8493 15.4836C11.8493 15.798 11.6777 16.0901 11.3961 16.2437C11.2515 16.3225 11.0891 16.351 10.9271 16.3421C11.2336 16.1252 11.3935 15.853 11.3935 15.5147C11.3935 15.3417 11.3537 15.1523 11.2744 14.9454C11.1171 14.5359 10.8961 14.2782 10.6225 14.1618C10.7029 13.2008 10.8602 12.4109 11.1312 11.7364C11.3931 11.5144 11.7467 11.2755 12.201 11.0983C12.6887 10.9086 13.2897 10.7522 13.82 10.6352C13.8947 10.9867 14.1451 11.2826 14.4853 11.4227C14.4368 11.5501 14.4054 11.6877 14.4054 11.842C14.4054 11.8543 14.4064 11.8671 14.4067 11.8796Z" fill="#EE324E"/>
<path d="M33.0968 15.9308C33.3199 15.8722 33.5305 15.7788 33.7213 15.651C33.8216 15.7155 33.9286 15.7673 34.045 15.7967C34.0452 15.7967 34.0803 15.803 34.1155 15.8094C34.166 16.0282 34.2555 16.2397 34.377 16.4339C33.9537 16.2553 33.5264 16.0875 33.0968 15.9308Z" fill="#EE324E"/>
<path d="M23.5126 14.2411C23.5126 14.2411 23.1767 14.2473 22.8794 14.2528C23.1682 14.0349 23.3869 13.7448 23.5126 13.4087C23.6384 13.7447 23.8569 14.0348 24.1458 14.2528C23.8485 14.2472 23.5126 14.2411 23.5126 14.2411Z" fill="#EE324E"/>
<path d="M12.6486 16.4338C12.7704 16.2396 12.8598 16.028 12.9097 15.8094C12.9452 15.803 12.9806 15.7966 12.9806 15.7966C13.0963 15.7673 13.2037 15.7155 13.3046 15.6509C13.4931 15.7771 13.7057 15.8711 13.9298 15.9303C13.4989 16.0875 13.0715 16.2555 12.6486 16.4338Z" fill="#EE324E"/>
<path d="M16.0107 15.2623C16.2294 14.9818 16.3553 14.646 16.3914 14.2942C16.5961 14.5885 16.8789 14.8167 17.2113 14.9579C16.8062 15.0509 16.4057 15.1526 16.0107 15.2623Z" fill="#EE324E"/>
<path d="M19.3464 14.5541C19.5597 14.3525 19.7263 14.1098 19.8344 13.8428C19.9122 13.8416 19.9882 13.8264 20.0638 13.8094C20.2365 14.0441 20.4611 14.2399 20.7211 14.3836C20.2625 14.4291 19.8039 14.4859 19.3464 14.5541Z" fill="#EE324E"/>
<path d="M26.304 14.3836C26.5638 14.24 26.7888 14.0443 26.9622 13.8094C27.0371 13.8264 27.1128 13.8416 27.1906 13.8428C27.2991 14.1101 27.4658 14.3528 27.6789 14.5541C27.2216 14.486 26.7629 14.4291 26.304 14.3836Z" fill="#EE324E"/>
<path d="M29.8141 14.9578C30.1467 14.8166 30.4294 14.5884 30.6338 14.294C30.6702 14.6459 30.7963 14.9817 31.015 15.2623C30.62 15.1526 30.2193 15.0509 29.8141 14.9578Z" fill="#EE324E"/>
<path d="M21.4538 3.951C21.4538 3.68203 21.675 3.4631 21.9469 3.4631C22.2184 3.4631 22.4395 3.68192 22.4395 3.951C22.4395 4.22009 22.2185 4.43902 21.9469 4.43902C21.6751 4.43902 21.4538 4.22009 21.4538 3.951Z" fill="white"/>
<path d="M23.02 5.47218C23.02 5.20298 23.241 4.98405 23.5126 4.98405C23.7842 4.98405 24.0051 5.2031 24.0051 5.47218C24.0051 5.74116 23.7842 5.95997 23.5126 5.95997C23.241 5.95997 23.02 5.74116 23.02 5.47218Z" fill="white"/>
<path d="M23.02 7.24725C23.02 6.97816 23.241 6.75923 23.5126 6.75923C23.7842 6.75923 24.0051 6.97827 24.0051 7.24725C24.0051 7.51656 23.7842 7.7356 23.5126 7.7356C23.241 7.7356 23.02 7.51656 23.02 7.24725Z" fill="white"/>
<path d="M23.02 9.02277C23.02 8.7538 23.241 8.53499 23.5126 8.53499C23.7842 8.53499 24.0051 8.7538 24.0051 9.02277C24.0051 9.29175 23.7842 9.51056 23.5126 9.51056C23.241 9.51056 23.02 9.29175 23.02 9.02277Z" fill="white"/>
<path d="M19.8417 4.23039C19.8417 4.10001 19.8929 3.97752 19.986 3.88543C20.079 3.79333 20.2025 3.7426 20.3338 3.7426C20.6053 3.7426 20.8263 3.96141 20.8263 4.23039C20.8263 4.49925 20.6054 4.71806 20.3338 4.71806C20.0624 4.71806 19.8417 4.49925 19.8417 4.23039Z" fill="white"/>
<path d="M18.2684 4.80912C18.2684 4.54003 18.4894 4.32111 18.761 4.32111C19.0324 4.32111 19.2533 4.54015 19.2533 4.80912C19.2533 5.07798 19.0324 5.29679 18.761 5.29679C18.4894 5.29668 18.2684 5.07798 18.2684 4.80912Z" fill="white"/>
<path d="M16.7532 5.80755C16.7532 5.53846 16.9743 5.31953 17.246 5.31953C17.3773 5.31953 17.5008 5.37038 17.5937 5.46248C17.6868 5.55469 17.7379 5.67718 17.7379 5.80755C17.7379 6.07664 17.5172 6.29556 17.2459 6.29556C16.9743 6.29556 16.7532 6.07664 16.7532 5.80755Z" fill="white"/>
<path d="M15.5963 7.12933C15.5963 6.86025 15.817 6.6412 16.0881 6.6412C16.3597 6.6412 16.5808 6.86025 16.5808 7.12933C16.5808 7.39808 16.3597 7.61666 16.0881 7.61666C15.8169 7.61666 15.5963 7.39796 15.5963 7.12933Z" fill="white"/>
<path d="M14.0155 6.99771C14.0155 6.72896 14.2366 6.51038 14.5084 6.51038C14.6397 6.51038 14.7633 6.56111 14.8562 6.6532C14.9492 6.74519 15.0004 6.86756 15.0004 6.99782C15.0004 7.26714 14.7796 7.48629 14.5084 7.48629C14.2366 7.48618 14.0155 7.26702 14.0155 6.99771Z" fill="white"/>
<path d="M12.4656 7.59872C12.4656 7.32964 12.6867 7.1106 12.9585 7.1106C13.2297 7.1106 13.4504 7.32964 13.4504 7.59872C13.4504 7.8677 13.2296 8.08674 12.9585 8.08674C12.6867 8.08662 12.4656 7.8677 12.4656 7.59872Z" fill="white"/>
<path d="M11.025 8.63532C11.025 8.36634 11.2461 8.14742 11.518 8.14742C11.7892 8.14742 12.0099 8.36634 12.0099 8.63532C12.0099 8.9044 11.7892 9.12344 11.518 9.12344C11.2462 9.12344 11.025 8.9044 11.025 8.63532Z" fill="white"/>
<path d="M9.85352 10.0006C9.85352 9.73143 10.0743 9.51239 10.3454 9.51239C10.6171 9.51239 10.8383 9.73143 10.8383 10.0006C10.8383 10.2696 10.6171 10.4885 10.3454 10.4885C10.0741 10.4884 9.85352 10.2696 9.85352 10.0006Z" fill="white"/>
<path d="M9.11566 11.5352C9.11566 11.2664 9.33675 11.0477 9.60857 11.0477C9.88017 11.0477 10.1011 11.2664 10.1011 11.5352C10.1011 11.8045 9.88005 12.0238 9.60857 12.0238C9.33675 12.0238 9.11566 11.8046 9.11566 11.5352Z" fill="white"/>
<path d="M8.70682 13.2844C8.70682 13.0157 8.9279 12.7971 9.19938 12.7971C9.47086 12.7971 9.69172 13.0157 9.69172 13.2844C9.69172 13.5535 9.47086 13.7725 9.19938 13.7725C8.92779 13.7725 8.70682 13.5535 8.70682 13.2844Z" fill="white"/>
<path d="M14.8202 8.6697C14.8202 8.53944 14.8715 8.41684 14.9647 8.32451C15.0579 8.2323 15.1814 8.18146 15.3127 8.18146C15.5842 8.18146 15.805 8.4005 15.805 8.6697C15.805 8.93867 15.5842 9.1576 15.3127 9.1576C15.0412 9.15749 14.8202 8.93867 14.8202 8.6697Z" fill="white"/>
<path d="M14.4107 10.4199C14.4107 10.1509 14.6314 9.93207 14.9026 9.93207C15.1742 9.93207 15.3951 10.151 15.3951 10.4199C15.3951 10.6888 15.1741 10.9078 14.9026 10.9078C14.6313 10.9078 14.4107 10.6889 14.4107 10.4199Z" fill="white"/>
<path d="M22.627 11.5592C22.627 11.0753 23.0242 10.6815 23.5126 10.6815C24.001 10.6815 24.3984 11.0753 24.3984 11.5592C24.3984 12.0431 24.0011 12.4369 23.5126 12.4369C23.0243 12.4369 22.627 12.0431 22.627 11.5592Z" fill="white"/>
<path d="M15.48 13.2652C15.2761 13.1461 15.1314 12.9551 15.0723 12.7277C14.951 12.2589 15.2371 11.7796 15.7102 11.6593C16.1832 11.5387 16.6671 11.8221 16.789 12.291C16.9108 12.7592 16.6249 13.2384 16.1518 13.3593C15.9223 13.4178 15.6838 13.3844 15.48 13.2652Z" fill="white"/>
<path d="M8.61328 15.9912C8.37825 15.5674 8.53463 15.0324 8.96238 14.799C9.16997 14.6857 9.40974 14.6596 9.63728 14.725C9.86436 14.7905 10.0522 14.9396 10.1659 15.1448C10.4014 15.5684 10.2449 16.1032 9.81719 16.3368C9.38955 16.57 8.84947 16.415 8.61328 15.9912Z" fill="white"/>
<path d="M24.5867 3.951C24.5867 3.82063 24.6379 3.69803 24.7308 3.60582C24.8236 3.51384 24.9469 3.4631 25.0783 3.4631C25.3501 3.4631 25.5713 3.68192 25.5713 3.951C25.5713 4.22009 25.3501 4.43902 25.0783 4.43902C24.8071 4.43902 24.5867 4.22009 24.5867 3.951Z" fill="white"/>
<path d="M26.1997 4.23039C26.1997 3.96141 26.4201 3.7426 26.6913 3.7426C26.9629 3.7426 27.1841 3.96141 27.1841 4.23039C27.1841 4.49925 26.9629 4.71806 26.6913 4.71806C26.4201 4.71806 26.1997 4.49925 26.1997 4.23039Z" fill="white"/>
<path d="M27.772 4.80912C27.772 4.54003 27.9928 4.32111 28.2642 4.32111C28.5359 4.32111 28.757 4.54015 28.757 4.80912C28.757 5.07798 28.5359 5.29679 28.2642 5.29679C27.9928 5.29668 27.772 5.07798 27.772 4.80912Z" fill="white"/>
<path d="M29.287 5.80755C29.287 5.53846 29.5079 5.31953 29.7793 5.31953C30.051 5.31953 30.2719 5.53858 30.2719 5.80755C30.2719 6.07664 30.051 6.29556 29.7793 6.29556C29.5079 6.29556 29.287 6.07664 29.287 5.80755Z" fill="white"/>
<path d="M30.4445 7.12933C30.4445 6.86025 30.6653 6.6412 30.937 6.6412C31.0685 6.6412 31.1919 6.69194 31.285 6.78403C31.3779 6.87613 31.4292 6.99885 31.4292 7.12933C31.4292 7.39808 31.2084 7.61666 30.937 7.61666C30.6653 7.61666 30.4445 7.39796 30.4445 7.12933Z" fill="white"/>
<path d="M32.0248 6.99771C32.0248 6.72896 32.246 6.51038 32.5177 6.51038C32.7891 6.51038 33.0099 6.72907 33.0099 6.99771C33.0099 7.26702 32.7891 7.48618 32.5177 7.48618C32.246 7.48618 32.0248 7.26702 32.0248 6.99771Z" fill="white"/>
<path d="M33.5747 7.59872C33.5747 7.32964 33.7953 7.1106 34.0666 7.1106C34.3384 7.1106 34.5596 7.32964 34.5596 7.59872C34.5596 7.8677 34.3384 8.08674 34.0666 8.08674C33.7953 8.08662 33.5747 7.8677 33.5747 7.59872Z" fill="white"/>
<path d="M35.0151 8.63532C35.0151 8.36634 35.2362 8.14742 35.5079 8.14742C35.7793 8.14742 35.9999 8.36634 35.9999 8.63532C35.9999 8.9044 35.7793 9.12344 35.5079 9.12344C35.2362 9.12344 35.0151 8.9044 35.0151 8.63532Z" fill="white"/>
<path d="M36.1871 10.0006C36.1871 9.73143 36.4082 9.51239 36.6798 9.51239C36.9513 9.51239 37.1723 9.73143 37.1723 10.0006C37.1723 10.2696 36.9513 10.4885 36.6798 10.4885C36.4082 10.4884 36.1871 10.2696 36.1871 10.0006Z" fill="white"/>
<path d="M36.9251 11.5352C36.9251 11.2664 37.1458 11.0477 37.4173 11.0477C37.6888 11.0477 37.9099 11.2664 37.9099 11.5352C37.9099 11.8045 37.6889 12.0238 37.4173 12.0238C37.1458 12.0238 36.9251 11.8046 36.9251 11.5352Z" fill="white"/>
<path d="M37.3335 13.2844C37.3335 13.0157 37.5547 12.7971 37.8265 12.7971C38.0977 12.7971 38.3182 13.0157 38.3182 13.2844C38.3182 13.5535 38.0977 13.7725 37.8265 13.7725C37.5547 13.7725 37.3335 13.5535 37.3335 13.2844Z" fill="white"/>
<path d="M31.2201 8.6697C31.2201 8.4005 31.441 8.18146 31.7126 8.18146C31.9842 8.18146 32.205 8.4005 32.205 8.6697C32.205 8.93867 31.9842 9.1576 31.7126 9.1576C31.441 9.1576 31.2201 8.93867 31.2201 8.6697Z" fill="white"/>
<path d="M31.6297 10.4199C31.6297 10.1509 31.8507 9.93207 32.1225 9.93207C32.394 9.93207 32.6151 10.151 32.6151 10.4199C32.6151 10.6888 32.3941 10.9078 32.1225 10.9078C31.8507 10.9078 31.6297 10.6889 31.6297 10.4199Z" fill="white"/>
<path d="M30.8742 13.3593C30.6448 13.3008 30.4523 13.1575 30.3322 12.9557C30.212 12.7541 30.1782 12.5179 30.2372 12.2911C30.2959 12.0641 30.4403 11.8733 30.6437 11.754C30.8474 11.6345 31.0861 11.6009 31.3153 11.6593C31.5446 11.7177 31.7372 11.8609 31.8575 12.0628C31.9779 12.2646 32.0117 12.5007 31.9526 12.7277C31.8935 12.9552 31.749 13.1463 31.5453 13.2655C31.3417 13.3844 31.1035 13.4178 30.8742 13.3593Z" fill="white"/>
<path d="M37.2082 16.3369C37.0005 16.2235 36.8499 16.0368 36.7841 15.8112C36.7187 15.5865 36.7455 15.3499 36.8596 15.1452C36.8596 15.1452 36.8597 15.1451 36.8597 15.145C36.9733 14.9396 37.1611 14.7905 37.3886 14.725C37.6161 14.6596 37.8554 14.6858 38.0627 14.799C38.27 14.9117 38.4205 15.0976 38.4865 15.3225C38.5526 15.5478 38.5263 15.7854 38.412 15.9914C38.1764 16.4152 37.6362 16.5703 37.2082 16.3369Z" fill="white"/>
<path d="M19.8513 16.878C19.8513 16.7478 19.9026 16.6252 19.9958 16.533C20.0889 16.4408 20.2124 16.39 20.3437 16.39C20.6157 16.39 20.8369 16.6089 20.8369 16.878C20.8369 17.1471 20.6157 17.3661 20.3437 17.3661C20.0723 17.3661 19.8513 17.1472 19.8513 16.878Z" fill="white"/>
<path d="M13.7426 18.5137C13.7426 18.3834 13.7938 18.2608 13.8869 18.1686C13.9798 18.0765 14.1033 18.0257 14.2346 18.0257C14.5064 18.0257 14.7275 18.2448 14.7275 18.5139C14.7275 18.7831 14.5064 19.0021 14.2346 19.0021C13.9632 19.0021 13.7426 18.7831 13.7426 18.5137Z" fill="white"/>
<path d="M23.5126 16.1374C23.5566 16.1537 24.8 16.6128 25.0889 16.7194C24.8 16.8262 23.5566 17.2854 23.5126 17.3018C23.4685 17.2854 22.2256 16.8261 21.9367 16.7194C22.2256 16.6127 23.4685 16.1537 23.5126 16.1374Z" fill="#EE324E"/>
<path d="M12.531 18.5998C12.645 18.6413 13.0997 18.807 13.1935 18.8411C13.1685 18.938 13.0354 19.4539 13.0007 19.5886C12.8793 19.5218 12.4471 19.2834 12.3723 19.2422C12.3926 19.1599 12.5021 18.7163 12.531 18.5998Z" fill="#EE324E"/>
<path d="M26.1892 16.878C26.1892 16.6089 26.41 16.39 26.6812 16.39C26.9532 16.39 27.1747 16.6089 27.1747 16.878C27.1747 17.1471 26.9532 17.3661 26.6812 17.3661C26.41 17.3661 26.1892 17.1472 26.1892 16.878Z" fill="white"/>
<path d="M32.2986 18.5137C32.2986 18.2447 32.5192 18.0256 32.7906 18.0256C33.0618 18.0256 33.2826 18.2447 33.2826 18.5137C33.2826 18.783 33.0618 19.002 32.7906 19.002C32.5192 19.0021 32.2986 18.7831 32.2986 18.5137Z" fill="white"/>
<path d="M34.6807 18.1651C31.1752 16.5286 27.4177 15.6987 23.5126 15.6987C19.6073 15.6987 15.85 16.5286 12.3444 18.1651C12.3158 18.1784 12.2961 18.1994 12.2859 18.2274C12.2732 18.2625 12.2767 18.3055 12.2958 18.3457C12.3118 18.3794 12.3399 18.4049 12.3748 18.4173C12.4096 18.4298 12.4472 18.4279 12.4809 18.4123C12.5069 18.4003 12.5366 18.3989 12.5636 18.4086C12.5906 18.4182 12.6125 18.4382 12.6246 18.464L12.6342 18.4846L13.3046 18.7288C13.3394 18.7415 13.359 18.7783 13.3498 18.8139L13.1507 19.5854L13.1731 19.6331C13.1981 19.6864 13.1749 19.7497 13.1212 19.7748C13.0339 19.8155 12.9961 19.9199 13.0362 20.0064C13.0748 20.0863 13.1619 20.1446 13.2546 20.1018C16.4625 18.6022 19.9138 17.8419 23.5125 17.8419C27.1113 17.8419 30.5628 18.6022 33.7704 20.1017C33.8637 20.1447 33.9507 20.0867 33.9883 20.0068C34.0294 19.9199 33.9915 19.8158 33.9037 19.7748C33.8501 19.75 33.8269 19.6864 33.8521 19.6331L33.8745 19.5851L33.6754 18.8139C33.6661 18.7782 33.6857 18.7415 33.7206 18.7288L34.3907 18.4848L34.4004 18.464C34.4124 18.4382 34.4345 18.4183 34.4613 18.4086C34.4882 18.3989 34.518 18.4003 34.544 18.4123C34.6138 18.4449 34.6974 18.4148 34.7302 18.3456C34.749 18.3059 34.7524 18.2632 34.7396 18.2281C34.7295 18.1998 34.7096 18.1786 34.6807 18.1651ZM14.2345 19.1455C13.8833 19.1455 13.5977 18.8621 13.5977 18.5138C13.5977 18.345 13.6641 18.1864 13.7845 18.067C13.9047 17.9477 14.0646 17.8821 14.2346 17.8821C14.5862 17.8821 14.8723 18.1654 14.8723 18.5138C14.8723 18.8621 14.5862 19.1455 14.2345 19.1455ZM19.0203 17.1195L17.4601 18.1983C17.4458 18.2081 17.4283 18.2126 17.4109 18.2107L15.5176 18.0126C15.4875 18.0095 15.4625 17.9881 15.455 17.9591C15.4475 17.9301 15.4589 17.8995 15.4838 17.8823L17.045 16.8042C17.0593 16.7943 17.0767 16.7899 17.094 16.7917L18.9864 16.9891C19.0165 16.9922 19.0414 17.0136 19.0489 17.0426C19.0564 17.0716 19.0451 17.1025 19.0203 17.1195ZM20.3437 17.5096C19.9923 17.5096 19.7065 17.2262 19.7065 16.878C19.7065 16.7094 19.7728 16.5508 19.8935 16.4314C20.0139 16.3121 20.1738 16.2464 20.3438 16.2464C20.6957 16.2464 20.9818 16.5297 20.9818 16.878C20.9817 17.2262 20.6955 17.5096 20.3437 17.5096ZM25.3216 16.7867L23.5379 17.4456C23.5217 17.4516 23.5037 17.4517 23.4873 17.4456L21.7042 16.7867C21.6759 16.7762 21.6571 16.7494 21.6571 16.7194C21.6571 16.6894 21.6759 16.6626 21.7042 16.6521L23.4873 15.9935C23.5037 15.9874 23.5216 15.9875 23.5379 15.9935L25.3216 16.6521C25.35 16.6626 25.3687 16.6894 25.3687 16.7194C25.3687 16.7494 25.35 16.7762 25.3216 16.7867ZM26.6812 17.5096C26.33 17.5096 26.0445 17.2262 26.0445 16.878C26.0445 16.5298 26.3301 16.2464 26.6812 16.2464C27.0332 16.2464 27.3195 16.5297 27.3195 16.878C27.3195 17.2262 27.0332 17.5096 26.6812 17.5096ZM31.5073 18.0127L29.6151 18.2108C29.5978 18.2127 29.5804 18.2083 29.5661 18.1984L28.0048 17.1196C27.9801 17.1026 27.9684 17.0719 27.976 17.0429C27.9834 17.0138 28.0084 16.9926 28.0385 16.9894L29.9313 16.7919C29.9484 16.7901 29.9659 16.7944 29.9803 16.8044L31.5411 17.8826C31.5659 17.8994 31.5773 17.9302 31.5699 17.9594C31.5625 17.9883 31.5375 18.0096 31.5073 18.0127ZM32.7905 19.1455C32.4394 19.1455 32.1537 18.8621 32.1537 18.5138C32.1537 18.1655 32.4395 17.8821 32.7905 17.8821C33.1416 17.8821 33.4272 18.1654 33.4272 18.5138C33.4273 18.8621 33.1416 19.1455 32.7905 19.1455Z" fill="#FEBE10"/>
<path d="M38.8071 15.331C38.7628 15.2942 38.7557 15.2294 38.791 15.184C38.9723 14.9501 39.0464 14.6772 38.9995 14.4154C38.9587 14.1877 38.8283 13.9947 38.6326 13.8723C38.5836 13.8415 38.5678 13.7777 38.5972 13.728C38.6765 13.594 38.7183 13.4406 38.7183 13.2844C38.7183 12.8689 38.4207 12.5053 38.0104 12.4198C37.9694 12.4112 37.937 12.3798 37.9275 12.3394C37.9179 12.2989 37.9331 12.2566 37.9662 12.231C38.1845 12.062 38.3096 11.8084 38.3096 11.5353C38.3096 11.0772 37.9627 10.6992 37.5025 10.6558C37.4649 10.6523 37.4318 10.6294 37.4155 10.5955C37.3991 10.5616 37.402 10.5217 37.4228 10.4905C37.5202 10.345 37.5716 10.1756 37.5716 10.0006C37.5716 9.5132 37.1714 9.1167 36.6797 9.1167C36.6024 9.1167 36.5235 9.12733 36.4454 9.14836C36.405 9.1591 36.3619 9.14596 36.335 9.11431C36.308 9.08266 36.3019 9.03844 36.3192 9.00073C36.3727 8.88487 36.3998 8.76192 36.3998 8.63532C36.3998 8.14776 35.9997 7.75104 35.5079 7.75104C35.3672 7.75104 35.2275 7.78452 35.1038 7.84771C35.0689 7.86553 35.0275 7.85982 34.9949 7.83834C34.9623 7.81674 34.9445 7.77618 34.9477 7.73744L34.9592 7.59862C34.9592 7.11094 34.5587 6.71422 34.0666 6.71422C33.883 6.71422 33.7069 6.76953 33.5572 6.87408C33.5278 6.89476 33.4897 6.89922 33.456 6.8863C33.4224 6.87339 33.3974 6.8446 33.3898 6.80975C33.3 6.4064 32.9334 6.11366 32.5177 6.11366C32.2134 6.11366 31.9328 6.26597 31.7665 6.52123C31.7485 6.54923 31.718 6.56705 31.6846 6.5698C31.6513 6.57254 31.6185 6.55963 31.5959 6.53506C31.4276 6.35075 31.1873 6.24506 30.9368 6.24506L30.7361 6.26837C30.6984 6.27271 30.6553 6.25832 30.6321 6.22849C30.6091 6.1989 30.5973 6.16028 30.611 6.12532C30.6513 6.02374 30.6718 5.9169 30.6718 5.80755C30.6718 5.31988 30.2711 4.92316 29.779 4.92316C29.6135 4.92316 29.4504 4.96978 29.307 5.05799C29.2724 5.07936 29.2288 5.07536 29.1941 5.05411C29.1593 5.03297 29.1401 4.99 29.1437 4.94967L29.1563 4.80901C29.1563 4.57283 29.0634 4.35082 28.8949 4.18377C28.7263 4.01672 28.5024 3.92474 28.2639 3.92474C28.0716 3.92474 27.8874 3.98564 27.7313 4.10093C27.702 4.12252 27.6636 4.12801 27.6292 4.11521C27.595 4.10264 27.5695 4.07362 27.5615 4.0382C27.4721 3.63714 27.106 3.346 26.691 3.346C26.4521 3.346 26.2278 3.43832 26.0591 3.60583C26.0342 3.6304 25.9989 3.64159 25.9643 3.63554C25.9296 3.6296 25.9 3.6072 25.8851 3.57578C25.7385 3.2667 25.4216 3.06697 25.0778 3.06697C24.9803 3.06697 24.883 3.08331 24.7883 3.1153C24.7471 3.12924 24.7013 3.11724 24.6726 3.08456C24.5067 2.89729 24.2943 2.75115 24.0584 2.66179L23.8893 2.60809C23.8445 2.59392 23.8083 2.55107 23.8083 2.50468V1.74918C23.8083 1.69011 23.8566 1.64234 23.9161 1.64234C23.9161 1.64234 24.4047 1.64234 24.563 1.64234C24.563 1.51026 24.563 1.22814 24.563 1.09617C24.4047 1.09617 23.9161 1.09617 23.9161 1.09617C23.8566 1.09617 23.8083 1.04841 23.8083 0.989334C23.8083 0.989334 23.8083 0.574333 23.8083 0.42305C23.6713 0.42305 23.353 0.42305 23.2159 0.42305C23.2159 0.574219 23.2159 0.989334 23.2159 0.989334C23.2159 1.04841 23.1676 1.09617 23.108 1.09617C23.108 1.09617 22.6203 1.09617 22.4618 1.09617C22.4618 1.22814 22.4618 1.51037 22.4618 1.64234C22.6203 1.64234 23.108 1.64234 23.108 1.64234C23.1675 1.64234 23.2159 1.69011 23.2159 1.74918V2.50468C23.2159 2.55119 23.1796 2.59404 23.1349 2.6082L22.9659 2.66191C22.73 2.75115 22.5177 2.8974 22.3516 3.08468C22.3225 3.11724 22.277 3.12936 22.2356 3.1153C22.1412 3.08331 22.0439 3.06697 21.9463 3.06697C21.6024 3.06697 21.2855 3.2667 21.139 3.57578C21.1242 3.6072 21.0946 3.6296 21.0599 3.63554C21.0252 3.64148 20.9899 3.6304 20.965 3.60583C20.7963 3.43832 20.5719 3.346 20.3331 3.346C19.9182 3.346 19.5521 3.63714 19.4624 4.0382C19.4544 4.07362 19.429 4.10264 19.3947 4.11521C19.3603 4.12778 19.3219 4.1223 19.2925 4.10059C19.1372 3.98541 18.9531 3.92462 18.7603 3.92462C18.2683 3.92462 17.8681 4.32134 17.8681 4.80878L17.8811 4.94796C17.8849 4.9884 17.8659 5.03182 17.8311 5.05319C17.7964 5.07456 17.7531 5.07913 17.7183 5.05788C17.574 4.96955 17.4105 4.92293 17.2453 4.92293C16.7531 4.92293 16.3527 5.31965 16.3527 5.80732C16.3527 5.91587 16.3732 6.02282 16.4136 6.12532C16.4273 6.16028 16.4156 6.19867 16.3924 6.22838C16.3693 6.25809 16.3261 6.27249 16.2885 6.26814L16.0872 6.24483C15.8372 6.24483 15.597 6.35053 15.4281 6.53495C15.4055 6.55951 15.3728 6.57242 15.3392 6.56957C15.3058 6.56683 15.2755 6.54877 15.2574 6.52078C15.0921 6.26574 14.8118 6.11343 14.5075 6.11343C14.0904 6.11343 13.724 6.40594 13.6363 6.80906C13.6287 6.84403 13.6039 6.87282 13.5703 6.88585C13.5367 6.89887 13.4987 6.89453 13.4692 6.87396C13.3177 6.7693 13.1409 6.71388 12.9577 6.71388C12.4657 6.71388 12.0655 7.1106 12.0655 7.59827L12.0777 7.73539C12.0812 7.77401 12.0637 7.81526 12.0313 7.83708C11.9989 7.8589 11.9576 7.8653 11.9226 7.84771C11.7944 7.78338 11.6581 7.7507 11.5174 7.7507C11.0253 7.7507 10.6248 8.14742 10.6248 8.63498C10.6248 8.76204 10.6517 8.8851 10.7046 9.00073C10.7219 9.03844 10.7156 9.08254 10.6886 9.11408C10.6615 9.1455 10.6185 9.15875 10.5781 9.1479C10.5005 9.12687 10.4219 9.11625 10.3446 9.11625C9.8526 9.11625 9.45242 9.51285 9.45242 10.0002C9.45242 10.1753 9.5042 10.3446 9.60188 10.4897C9.62298 10.521 9.62587 10.561 9.60961 10.5949C9.59323 10.6289 9.56013 10.6519 9.52242 10.6554C9.06226 10.6988 8.71512 11.0768 8.71512 11.5348C8.71512 11.8079 8.84014 12.0615 9.05811 12.2307C9.09109 12.2563 9.10609 12.2986 9.09651 12.339C9.08706 12.3795 9.05477 12.4108 9.01382 12.4193C8.60395 12.5049 8.30652 12.8685 8.30652 13.284C8.30652 13.4403 8.34804 13.5938 8.42658 13.7279C8.45564 13.7776 8.43995 13.841 8.39094 13.8717C8.19557 13.9943 8.06548 14.1874 8.02477 14.4153C7.97795 14.6772 8.05199 14.9499 8.2334 15.1836C8.26858 15.2289 8.26143 15.2937 8.21726 15.3305C8.07206 15.4512 8.00009 15.6106 8.00344 15.8043C8.00943 16.1472 8.24989 16.5104 8.48424 16.692C8.74557 16.8943 9.26512 17.1795 9.80716 16.8162C9.84568 16.7903 9.89654 16.7919 9.93345 16.82C10.3709 17.1542 10.9466 17.2574 11.4735 17.0966C11.5145 17.0841 11.5589 17.0968 11.5869 17.1289C11.6149 17.161 11.621 17.2064 11.6026 17.2448C11.544 17.3668 11.5439 17.5072 11.6027 17.6305C11.6564 17.7447 11.7481 17.8298 11.8609 17.8703C11.9676 17.9087 12.0845 17.9028 12.1905 17.8538C15.7417 16.195 19.5506 15.3539 23.5117 15.3539C27.4733 15.3539 31.2837 16.195 34.8379 17.8534C35.0608 17.9424 35.3181 17.8485 35.4217 17.6302C35.4799 17.5076 35.4795 17.367 35.4208 17.2445C35.4023 17.2063 35.4086 17.1609 35.4366 17.1288C35.4646 17.0967 35.509 17.084 35.5498 17.0964C36.0767 17.2572 36.6528 17.1538 37.0907 16.8199C37.1275 16.7918 37.1784 16.7903 37.217 16.816C37.7582 17.1792 38.278 16.8941 38.5396 16.6918C38.7738 16.5104 39.0141 16.1473 39.0201 15.8045C39.0244 15.6112 38.9524 15.4516 38.8071 15.331ZM38.4631 13.2844C38.4631 13.6327 38.1776 13.9161 37.8265 13.9161C37.4746 13.9161 37.1886 13.6327 37.1886 13.2844C37.1886 12.9366 37.4746 12.6536 37.8265 12.6536C38.1776 12.6536 38.4631 12.9366 38.4631 13.2844ZM37.4173 10.9043C37.7687 10.9043 38.0546 11.1874 38.0546 11.5352C38.0546 11.8837 37.7687 12.1673 37.4173 12.1673C37.066 12.1673 36.7804 11.8838 36.7804 11.5352C36.7802 11.1873 37.066 10.9043 37.4173 10.9043ZM36.6798 9.36888C37.0313 9.36888 37.3172 9.65225 37.3172 10.0006C37.3172 10.3488 37.0313 10.6319 36.6798 10.6319C36.3282 10.6319 36.0423 10.3487 36.0423 10.0006C36.0423 9.65225 36.3282 9.36888 36.6798 9.36888ZM35.5081 8.00402C35.8592 8.00402 36.1448 8.28727 36.1448 8.63532C36.1448 8.98359 35.8591 9.26696 35.5081 9.26696C35.1564 9.26696 34.8704 8.98359 34.8704 8.63532C34.8704 8.28716 35.1564 8.00402 35.5081 8.00402ZM34.0666 6.96709C34.4183 6.96709 34.7045 7.25034 34.7045 7.59873C34.7045 7.94689 34.4183 8.23014 34.0666 8.23014C33.7155 8.23014 33.4299 7.94689 33.4299 7.59873C33.4299 7.25034 33.7155 6.96709 34.0666 6.96709ZM32.5177 6.36687C32.869 6.36687 33.1547 6.64989 33.1547 6.99771C33.1547 7.34621 32.8689 7.62969 32.5177 7.62969C32.166 7.62969 31.88 7.34621 31.88 6.99771C31.88 6.64989 32.166 6.36687 32.5177 6.36687ZM31.7126 8.03795C32.0639 8.03795 32.3497 8.32133 32.3497 8.66971C32.3497 9.01787 32.0638 9.30101 31.7126 9.30101C31.3611 9.30101 31.0753 9.01775 31.0753 8.66971C31.0752 8.32133 31.3611 8.03795 31.7126 8.03795ZM30.5701 11.6304C30.807 11.4914 31.0845 11.4522 31.3515 11.5202C31.6183 11.5881 31.8423 11.7549 31.9824 11.9897C32.1226 12.2244 32.1617 12.4992 32.0931 12.7635C32.0244 13.0281 31.856 13.2503 31.6191 13.389C31.3822 13.5275 31.1048 13.5663 30.8382 13.4982C30.5715 13.4302 30.3475 13.2634 30.2075 13.0286C30.1127 12.8694 30.0641 12.6919 30.0641 12.5117C30.0641 12.4262 30.0751 12.3403 30.097 12.2554C30.1652 11.9912 30.3332 11.7693 30.5701 11.6304ZM32.1225 11.0513C31.7708 11.0513 31.4849 10.768 31.4849 10.4199C31.4849 10.0718 31.7708 9.78857 32.1225 9.78857C32.474 9.78857 32.7599 10.0718 32.7599 10.4199C32.76 10.7681 32.474 11.0513 32.1225 11.0513ZM30.9369 6.4977C31.107 6.4977 31.2668 6.56328 31.3873 6.68257C31.5077 6.80186 31.5739 6.96057 31.5739 7.12945C31.5739 7.47727 31.2881 7.7603 30.9369 7.7603C30.5854 7.7603 30.2995 7.47727 30.2995 7.12945C30.2995 6.78107 30.5854 6.4977 30.9369 6.4977ZM29.7792 5.17602C30.1308 5.17602 30.4167 5.45939 30.4167 5.80755C30.4167 6.15582 30.1308 6.43908 29.7792 6.43908C29.4279 6.43908 29.1422 6.15582 29.1422 5.80755C29.1422 5.45939 29.4279 5.17602 29.7792 5.17602ZM28.2641 4.17748C28.6156 4.17748 28.9017 4.46074 28.9017 4.80901C28.9017 5.15694 28.6156 5.44008 28.2641 5.44008C27.9128 5.44008 27.6271 5.15694 27.6271 4.80901C27.6271 4.46086 27.9128 4.17748 28.2641 4.17748ZM26.6914 3.59909C27.043 3.59909 27.329 3.88234 27.329 4.23039C27.329 4.57843 27.043 4.86146 26.6914 4.86146C26.3403 4.86146 26.0549 4.57832 26.0549 4.23039C26.0549 3.88234 26.3403 3.59909 26.6914 3.59909ZM24.6284 3.50448C24.7484 3.3853 24.9082 3.31972 25.0782 3.31972C25.43 3.31972 25.716 3.60297 25.716 3.95102C25.716 4.29917 25.43 4.58243 25.0782 4.58243C24.7273 4.58243 24.4418 4.29917 24.4418 3.95102C24.4419 3.78236 24.5081 3.62377 24.6284 3.50448ZM23.5126 4.84055C23.8642 4.84055 24.15 5.12392 24.15 5.47219C24.15 5.82024 23.8641 6.10349 23.5126 6.10349C23.1611 6.10349 22.8752 5.82024 22.8752 5.47219C22.8752 5.12392 23.1611 4.84055 23.5126 4.84055ZM22.8752 9.02278C22.8752 8.67474 23.1611 8.39148 23.5126 8.39148C23.8642 8.39148 24.15 8.67474 24.15 9.02278C24.15 9.37082 23.8641 9.65397 23.5126 9.65397C23.1611 9.65408 22.8752 9.37094 22.8752 9.02278ZM24.5433 11.5592C24.5433 12.1223 24.081 12.5805 23.5126 12.5805C22.9444 12.5805 22.4821 12.1224 22.4821 11.5592C22.4821 10.9961 22.9444 10.538 23.5126 10.538C24.081 10.538 24.5433 10.9961 24.5433 11.5592ZM23.5126 7.87913C23.1611 7.87913 22.8752 7.59576 22.8752 7.24726C22.8752 6.89899 23.1611 6.61573 23.5126 6.61573C23.8642 6.61573 24.15 6.89899 24.15 7.24726C24.1501 7.59576 23.8642 7.87913 23.5126 7.87913ZM21.9469 3.31972C22.2983 3.31972 22.5842 3.60297 22.5842 3.95102C22.5842 4.29917 22.2983 4.58243 21.9469 4.58243C21.5952 4.58243 21.3089 4.29917 21.3089 3.95102C21.3089 3.60297 21.5952 3.31972 21.9469 3.31972ZM19.8836 3.78396C20.0039 3.66479 20.1638 3.5992 20.3338 3.5992C20.6852 3.5992 20.971 3.88246 20.971 4.2305C20.971 4.57855 20.6851 4.86157 20.3338 4.86157C19.9825 4.86157 19.6969 4.57843 19.6969 4.2305C19.6969 4.06174 19.7632 3.90314 19.8836 3.78396ZM18.761 4.17748C19.1123 4.17748 19.3982 4.46074 19.3982 4.80901C19.3982 5.15694 19.1123 5.44008 18.761 5.44008C18.4095 5.44008 18.1236 5.15694 18.1236 4.80901C18.1236 4.46086 18.4095 4.17748 18.761 4.17748ZM17.2461 5.17602C17.4161 5.17602 17.5761 5.24172 17.6964 5.36101C17.8166 5.48042 17.8829 5.63901 17.8829 5.80755C17.8829 6.15582 17.5972 6.43908 17.2461 6.43908C16.8945 6.43908 16.6085 6.15582 16.6085 5.80755C16.6084 5.45939 16.8945 5.17602 17.2461 5.17602ZM16.0881 6.4977C16.4397 6.4977 16.7257 6.78107 16.7257 7.12934C16.7257 7.47715 16.4398 7.76018 16.0881 7.76018C15.7371 7.76018 15.4514 7.47715 15.4514 7.12934C15.4514 6.78107 15.737 6.4977 16.0881 6.4977ZM15.6741 11.5202C16.2243 11.3799 16.7875 11.7097 16.9292 12.2553C17.0709 12.8001 16.7382 13.3577 16.1879 13.4983C15.921 13.5664 15.6434 13.5276 15.4063 13.3889C15.1692 13.2501 15.0007 13.028 14.9321 12.7635C14.7908 12.218 15.1238 11.6602 15.6741 11.5202ZM14.2658 10.4199C14.2658 10.0718 14.5515 9.78857 14.9026 9.78857C15.254 9.78857 15.54 10.0718 15.54 10.4199C15.54 10.768 15.254 11.0513 14.9026 11.0513C14.5515 11.0513 14.2658 10.7681 14.2658 10.4199ZM15.3127 8.03795C15.664 8.03795 15.9499 8.32133 15.9499 8.66971C15.9499 9.01787 15.664 9.30101 15.3127 9.30101C14.9613 9.30101 14.6754 9.01775 14.6754 8.66971C14.6754 8.50106 14.7418 8.34246 14.8623 8.22306C14.9828 8.10365 15.1427 8.03795 15.3127 8.03795ZM14.5084 6.36687C14.6785 6.36687 14.8383 6.43245 14.9586 6.55163C15.0789 6.6708 15.1452 6.82917 15.1452 6.99771C15.1452 7.34621 14.8596 7.62969 14.5085 7.62969C14.1569 7.62969 13.8707 7.34621 13.8707 6.99771C13.8706 6.64989 14.1566 6.36687 14.5084 6.36687ZM12.9585 6.96709C13.3096 6.96709 13.5952 7.25034 13.5952 7.59873C13.5952 7.94689 13.3096 8.23014 12.9585 8.23014C12.6069 8.23014 12.3207 7.94689 12.3207 7.59873C12.3207 7.25034 12.6069 6.96709 12.9585 6.96709ZM11.5182 8.00402C11.8692 8.00402 12.1549 8.28727 12.1549 8.63532C12.1549 8.98359 11.8692 9.26696 11.5182 9.26696C11.1664 9.26696 10.8803 8.98359 10.8803 8.63532C10.8803 8.28716 11.1663 8.00402 11.5182 8.00402ZM10.3454 9.36888C10.697 9.36888 10.9832 9.65225 10.9832 10.0006C10.9832 10.3488 10.6971 10.6319 10.3454 10.6319C9.99434 10.6319 9.70867 10.3487 9.70867 10.0006C9.70867 9.65225 9.99422 9.36888 10.3454 9.36888ZM10.293 15.0759C10.293 15.0758 10.293 15.0758 10.293 15.0759V15.0759ZM8.97081 11.5352C8.97081 11.1873 9.25682 10.9043 9.60857 10.9043C9.95997 10.9043 10.246 11.1874 10.246 11.5352C10.246 11.8837 9.95997 12.1673 9.60857 12.1673C9.25682 12.1673 8.97081 11.8838 8.97081 11.5352ZM9.19939 12.6536C9.55079 12.6536 9.83657 12.9366 9.83657 13.2844C9.83657 13.6327 9.55079 13.9161 9.19939 13.9161C8.84798 13.9161 8.56197 13.6327 8.56197 13.2844C8.56197 12.9366 8.84798 12.6536 9.19939 12.6536ZM9.8872 16.4626C9.38968 16.7339 8.76126 16.5536 8.48643 16.0605C8.21287 15.5673 8.39498 14.945 8.8925 14.6733C9.13411 14.5417 9.41297 14.5111 9.67765 14.5874C9.94198 14.6635 10.1605 14.837 10.2929 15.0759C10.3794 15.2316 10.4204 15.4 10.4204 15.5664C10.4205 15.9266 10.2278 16.2766 9.8872 16.4626ZM14.3714 15.9947C13.6977 16.2294 13.0248 16.4939 12.3712 16.7809C12.3244 16.8014 12.2694 16.7866 12.2398 16.7451C12.21 16.7038 12.2137 16.6475 12.2487 16.6103C12.4884 16.3552 12.6547 16.031 12.7171 15.697C12.7253 15.6532 12.765 15.6184 12.8091 15.6106C12.8091 15.6106 12.9267 15.5897 12.9269 15.5897C13.04 15.561 13.1458 15.5107 13.241 15.4402C13.279 15.4121 13.3311 15.4119 13.3693 15.4396C13.6462 15.6407 13.9918 15.7641 14.3428 15.7872C14.3939 15.7907 14.4355 15.8291 14.4424 15.8794C14.4495 15.9298 14.4197 15.9779 14.3714 15.9947ZM14.7651 15.149C14.3362 15.2581 13.8873 15.1018 13.6212 14.7511C13.6102 14.7367 13.6021 14.7087 13.5996 14.691L13.5732 14.5074C13.4494 14.032 12.9591 13.745 12.4801 13.8674C12.2476 13.9266 12.0525 14.0718 11.9303 14.2766C11.8084 14.4812 11.7742 14.72 11.8342 14.9499C11.8698 15.0878 11.9366 15.2118 12.033 15.3184C12.0483 15.3353 12.0578 15.3568 12.06 15.3794C12.1017 15.81 11.8821 16.2226 11.5002 16.4311C11.2242 16.5816 10.8954 16.606 10.5982 16.4981C10.5578 16.4834 10.53 16.4463 10.5276 16.4037C10.5252 16.3612 10.5486 16.3212 10.5871 16.3021C11.1549 16.021 11.3046 15.626 11.0729 15.0214C10.9243 14.635 10.7239 14.4013 10.4769 14.3273C10.4284 14.3128 10.3967 14.2667 10.4006 14.2167C10.638 11.2115 11.5776 9.81439 14.2676 8.46678C14.3022 8.44941 14.3455 8.44873 14.3778 8.46998C14.4101 8.49135 14.4304 8.52494 14.4278 8.56333L14.4203 8.6696C14.4203 8.9428 14.5458 9.19646 14.7645 9.36557C14.7976 9.39116 14.8127 9.43355 14.8032 9.474C14.7936 9.51457 14.7613 9.54587 14.7201 9.55444C14.3089 9.63923 14.0103 10.0032 14.0103 10.4199C14.0103 10.8081 14.2728 11.1564 14.6485 11.2669C14.6792 11.2759 14.7042 11.2979 14.7169 11.327C14.7296 11.3561 14.7285 11.3893 14.7141 11.4175C14.6414 11.5601 14.611 11.7325 14.6242 11.93C14.6271 11.9735 14.6028 12.0144 14.563 12.0333C14.0876 12.2587 13.9418 12.6148 14.0904 13.1879C14.2688 13.8768 14.6862 14.1006 15.4446 13.9131C15.4753 13.9056 15.5075 13.9115 15.5332 13.9296C15.5589 13.9477 15.5753 13.9758 15.5782 14.0069C15.6272 14.5362 15.2852 15.0164 14.7651 15.149ZM17.6243 15.0804C16.9728 15.2209 16.3257 15.3853 15.7009 15.5685C15.6521 15.5828 15.5998 15.5613 15.5755 15.517C15.5513 15.4728 15.5614 15.4176 15.6002 15.3848C16.0289 15.0213 16.248 14.4738 16.1865 13.9202C16.1806 13.8674 16.2149 13.8183 16.2669 13.805C16.3189 13.7918 16.3728 13.8185 16.3933 13.8675C16.6095 14.3832 17.0694 14.7583 17.6232 14.8713C17.6731 14.8815 17.709 14.9249 17.7093 14.9754C17.7094 15.0259 17.674 15.0698 17.6243 15.0804ZM21.138 14.555C20.4237 14.6154 19.7004 14.7051 18.9883 14.8215C18.9378 14.8298 18.8883 14.8017 18.87 14.7544C18.8516 14.707 18.8695 14.6534 18.9126 14.6261C19.2622 14.4049 19.5288 14.0763 19.6635 13.701C19.6793 13.6569 19.7196 13.628 19.7669 13.63L19.8166 13.6319C19.9055 13.6319 19.9935 13.6191 20.0784 13.5938C20.1236 13.5805 20.1724 13.5976 20.1988 13.6365C20.4241 13.9673 20.7663 14.2197 21.1622 14.3471C21.211 14.3628 21.2419 14.4104 21.236 14.4609C21.23 14.5113 21.1891 14.5507 21.138 14.555ZM20.6763 13.0584C20.6702 13.0384 20.6702 13.0169 20.6763 12.9969C20.7015 12.914 20.7143 12.8285 20.7143 12.7428C20.7143 12.5052 20.6209 12.2818 20.4515 12.1138C20.282 11.9458 20.0565 11.8533 19.8166 11.8533C19.3215 11.8533 18.9185 12.2523 18.9185 12.7428C18.9185 12.8968 18.9606 13.0504 19.04 13.1868C19.0498 13.2038 19.0547 13.2231 19.0544 13.2425C19.0438 13.7243 18.7074 14.1446 18.2364 14.2643C17.7168 14.397 17.1833 14.14 16.9679 13.6534C16.9552 13.6248 16.9559 13.5921 16.9695 13.564C16.9832 13.5359 17.0085 13.5151 17.039 13.5071C17.7946 13.308 18.0523 12.9128 17.8738 12.2243C17.7246 11.6515 17.4234 11.4092 16.8968 11.4385C16.8528 11.4409 16.8116 11.4166 16.7929 11.3768C16.6776 11.1312 16.5209 10.9728 16.3136 10.8928C16.2684 10.8754 16.2406 10.8302 16.2455 10.7824C16.5501 7.83217 18.8485 4.98989 22.6519 5.26583C22.7107 5.27018 22.7548 5.32559 22.7512 5.38398L22.7458 5.47208C22.7458 5.62507 22.7919 5.77316 22.8792 5.90033C22.8913 5.91804 22.8979 5.93895 22.8979 5.96043V6.75902C22.8979 6.7805 22.8913 6.80141 22.8792 6.81912C22.7919 6.94629 22.7458 7.09426 22.7458 7.24714C22.7458 7.40037 22.7919 7.54857 22.8792 7.67586C22.8913 7.69357 22.8979 7.71448 22.8979 7.73596V8.53454C22.8979 8.55602 22.8913 8.57704 22.8791 8.59475C22.7919 8.72136 22.7458 8.86933 22.7458 9.02267C22.7458 9.32295 22.9251 9.59558 23.2026 9.71704C23.2462 9.73612 23.272 9.78137 23.266 9.82822C23.26 9.87506 23.2237 9.91243 23.1768 9.9202C22.7253 9.99435 22.4763 10.2345 22.393 10.6757C22.3848 10.7185 22.3511 10.7524 22.3078 10.7608C21.7901 10.8618 21.5591 11.1707 21.5591 11.7626C21.5591 12.4734 21.9078 12.7931 22.6897 12.799C22.7212 12.7992 22.7511 12.8132 22.7714 12.837C22.7917 12.8607 22.8004 12.8923 22.7954 12.923C22.7088 13.4475 22.2567 13.8281 21.7205 13.8281C21.2432 13.8282 20.8137 13.5117 20.6763 13.0584ZM24.6279 14.3913C24.6163 14.4402 24.5707 14.4744 24.5199 14.4734L23.5126 14.4548L22.5052 14.4734C22.4545 14.4744 22.409 14.4402 22.3973 14.3913C22.3855 14.3423 22.4089 14.292 22.4547 14.2703C22.9702 14.026 23.3258 13.547 23.4059 12.9891C23.4135 12.9365 23.459 12.8973 23.5127 12.8973C23.5665 12.8973 23.6118 12.9364 23.6195 12.9891C23.6995 13.5468 24.0551 14.0256 24.5707 14.2703C24.6164 14.2919 24.6396 14.3423 24.6279 14.3913ZM28.1557 14.7543C28.1375 14.8017 28.0881 14.8298 28.0375 14.8215C27.3259 14.7051 26.6025 14.6155 25.8872 14.555C25.8361 14.5507 25.7949 14.5113 25.7892 14.4608C25.7832 14.4103 25.8142 14.3626 25.8629 14.347C26.2583 14.2197 26.6007 13.9671 26.8275 13.6361C26.8543 13.5974 26.903 13.5803 26.9482 13.5938C27.0318 13.619 27.1194 13.6318 27.2086 13.6318L27.2582 13.6298C27.3053 13.6279 27.3456 13.6567 27.3615 13.7008C27.4968 14.0767 27.7637 14.4053 28.1131 14.626C28.1561 14.6532 28.174 14.7069 28.1557 14.7543ZM28.7887 14.2645C28.3182 14.1447 27.9818 13.7246 27.9708 13.2427C27.9705 13.2231 27.9755 13.2035 27.9856 13.1865C28.0643 13.0525 28.1061 12.899 28.1061 12.7428C28.1061 12.2524 27.7034 11.8533 27.2086 11.8533C26.7136 11.8533 26.3109 12.2523 26.3109 12.7428C26.3109 12.8292 26.3237 12.9143 26.3493 12.996C26.3558 13.0165 26.3558 13.0382 26.3494 13.0586C26.209 13.519 25.789 13.8282 25.3042 13.8282C24.7681 13.8282 24.3165 13.4475 24.2303 12.923C24.2252 12.8922 24.234 12.8607 24.2543 12.837C24.2747 12.8131 24.3044 12.7993 24.3358 12.799C25.1173 12.7931 25.4656 12.4734 25.4656 11.7626C25.4656 11.1708 25.2348 10.8618 24.7172 10.7608C24.6737 10.7524 24.64 10.7185 24.6318 10.6757C24.5486 10.2345 24.2997 9.99447 23.8483 9.9202C23.8014 9.91243 23.765 9.87506 23.759 9.82822C23.7531 9.78137 23.7788 9.73624 23.8225 9.71704C24.1 9.59546 24.2793 9.32283 24.2793 9.02267C24.2793 8.86853 24.2334 8.72067 24.1463 8.59498C24.134 8.57716 24.1274 8.55613 24.1274 8.53454V7.73596C24.1274 7.71448 24.134 7.69334 24.1463 7.67563C24.2334 7.54925 24.2793 7.40106 24.2793 7.24714C24.2793 7.09346 24.2334 6.94549 24.1463 6.81923C24.134 6.80152 24.1274 6.7805 24.1274 6.75902V5.96043C24.1274 5.93895 24.134 5.91781 24.1463 5.9001C24.2334 5.77396 24.2793 5.62587 24.2793 5.47208L24.2741 5.38638C24.2705 5.32799 24.3144 5.27006 24.3732 5.26583C28.1766 4.98989 30.4749 7.83228 30.7795 10.7824C30.7845 10.8302 30.7566 10.8754 30.7113 10.8928C30.5055 10.9723 30.3486 11.1308 30.2325 11.377C30.2137 11.4167 30.1727 11.4409 30.1287 11.4385C29.6024 11.4092 29.3009 11.6515 29.152 12.2242C28.9732 12.9128 29.2308 13.3085 29.9866 13.5071C30.0171 13.5151 30.0424 13.5359 30.0562 13.5641C30.0699 13.5922 30.0705 13.6249 30.0578 13.6535C29.8418 14.1401 29.3082 14.397 28.7887 14.2645ZM31.4496 15.5172C31.4249 15.5617 31.373 15.5829 31.3242 15.5686C30.6999 15.3854 30.0529 15.2211 29.4011 15.0805C29.3514 15.0698 29.3159 15.026 29.3162 14.9756C29.3166 14.9251 29.3523 14.8817 29.4024 14.8715C29.9568 14.7585 30.4162 14.3833 30.6319 13.8678C30.6524 13.8187 30.7063 13.792 30.7583 13.8052C30.8102 13.8184 30.8444 13.8674 30.8387 13.9203C30.7778 14.4737 30.9969 15.0213 31.4252 15.385C31.4637 15.4178 31.4738 15.473 31.4496 15.5172ZM34.7852 16.7451C34.7554 16.7863 34.7006 16.8012 34.6537 16.7807C33.9978 16.493 33.325 16.2285 32.6536 15.9948C32.6053 15.978 32.5755 15.9299 32.5824 15.8797C32.5895 15.8294 32.6311 15.7909 32.6822 15.7875C33.0375 15.7641 33.3745 15.6439 33.6565 15.4398C33.6948 15.412 33.7471 15.4123 33.7849 15.4407C33.8792 15.5109 33.9844 15.5611 34.0985 15.5899L34.216 15.6108C34.2601 15.6186 34.2995 15.6534 34.3077 15.6971C34.3712 16.0314 34.5375 16.3558 34.7763 16.6105C34.8114 16.6475 34.8149 16.7038 34.7852 16.7451ZM36.5481 14.3273C36.3026 14.4011 36.1021 14.6347 35.9523 15.0214C35.7207 15.626 35.8708 16.021 36.4389 16.3021C36.4774 16.3212 36.5008 16.3611 36.4984 16.4037C36.496 16.4463 36.4683 16.4833 36.4279 16.4981C36.1299 16.6061 35.801 16.5816 35.5256 16.4311C35.1432 16.2223 34.9233 15.8095 34.9658 15.3793C34.968 15.3567 34.9774 15.3354 34.9927 15.3185C35.0884 15.2123 35.1554 15.0882 35.1915 14.9496C35.2516 14.7202 35.2176 14.4814 35.0959 14.2771C34.9737 14.0722 34.7783 13.9266 34.5452 13.8674C34.0667 13.7451 33.5763 14.0323 33.4523 14.5059L33.4259 14.6912C33.4234 14.7092 33.4152 14.7367 33.4043 14.7511C33.1375 15.1018 32.6886 15.258 32.2599 15.1488C31.7408 15.0163 31.3987 14.5363 31.4467 14.0072C31.4493 13.9762 31.4658 13.9478 31.4914 13.9297C31.517 13.9116 31.5496 13.9056 31.5801 13.9131C32.3391 14.1006 32.7571 13.877 32.9356 13.1879C33.0842 12.6152 32.9382 12.2592 32.4624 12.0333C32.4225 12.0144 32.3984 11.9736 32.4014 11.93C32.4146 11.7283 32.3851 11.5609 32.3114 11.4178C32.2969 11.3895 32.2957 11.3564 32.3084 11.3271C32.321 11.298 32.3461 11.2758 32.3769 11.2668C32.7529 11.1563 33.0154 10.8079 33.0154 10.4198C33.0154 10.0032 32.7168 9.63923 32.3055 9.55433C32.2644 9.54587 32.2318 9.51445 32.2221 9.47389C32.2129 9.43344 32.228 9.39105 32.2611 9.36545C32.4798 9.19669 32.605 8.94303 32.605 8.66948L32.5978 8.56459C32.5952 8.52631 32.6155 8.4918 32.6479 8.47067C32.6802 8.44941 32.7237 8.44941 32.7582 8.46667C35.4477 9.81416 36.3872 11.2114 36.6242 14.2166C36.6282 14.2667 36.5966 14.3128 36.5481 14.3273ZM38.5388 16.0607C38.2646 16.5538 37.6364 16.7341 37.1381 16.4626C36.8965 16.3307 36.7214 16.1133 36.645 15.851C36.6177 15.7573 36.6041 15.6618 36.6041 15.5668C36.6041 15.3969 36.6475 15.2287 36.7327 15.0758C36.8649 14.8368 37.0837 14.6633 37.3481 14.5872C37.6129 14.511 37.8913 14.5417 38.1325 14.6732C38.3737 14.8043 38.5487 15.0208 38.6255 15.2825C38.7025 15.5447 38.6718 15.8211 38.5388 16.0607Z" fill="#FEBE10"/>
<path d="M34.4949 18.5998C34.5236 18.7165 34.6327 19.16 34.653 19.2422C34.5783 19.2834 34.1464 19.5217 34.0252 19.5886C33.9903 19.4538 33.8572 18.9381 33.8321 18.8411C33.926 18.807 34.3807 18.6414 34.4949 18.5998Z" fill="#EE324E"/>
<path d="M0.15744 41.7548C0.15744 54.5073 10.6344 64.8821 23.5125 64.8821C36.3905 64.8821 46.8676 54.5073 46.8676 41.7548C46.8676 28.9892 36.3905 18.6037 23.5125 18.6037C10.6345 18.6037 0.15744 28.9892 0.15744 41.7548Z" fill="#00529F"/>
<path d="M0.819794 41.7548C0.819794 47.9504 3.36415 53.5666 7.47386 57.6365C11.5841 61.7062 17.2554 64.2259 23.5126 64.2259C29.7692 64.2259 35.4409 61.7062 39.5512 57.6365C43.661 53.5666 46.2053 47.9504 46.2053 41.7548C46.2053 35.5524 43.6609 29.9303 39.5512 25.8558C35.4408 21.7819 29.7692 19.2597 23.5126 19.2597C17.2558 19.2597 11.5841 21.7819 7.47409 25.8558C3.36438 29.9303 0.819794 35.5524 0.819794 41.7548Z" fill="#FEBE10"/>
<path d="M2.80838 41.7427C2.80884 30.4312 12.0955 21.2306 23.5126 21.23C34.9297 21.2306 44.2161 30.4312 44.2166 41.7427C44.2161 53.0546 34.9297 62.2553 23.5126 62.2559C12.0955 62.2553 2.80884 53.0546 2.80838 41.7427Z" fill="#00529F"/>
<path d="M3.47083 41.7428C3.47083 30.794 12.4615 21.8864 23.5126 21.8864C34.5636 21.8864 43.5544 30.794 43.5544 41.7428C43.5544 52.6919 34.5636 61.5997 23.5126 61.5997C12.4615 61.5997 3.47083 52.6919 3.47083 41.7428Z" fill="white"/>
<path d="M42.7234 41.6699C42.7234 34.7428 38.9044 28.3409 32.7567 24.9626L32.6283 24.892C32.6283 24.892 28.2652 29.3839 28.1553 29.497C28.1459 29.497 28.1325 29.497 28.1325 29.497C28.1325 29.497 28.0649 29.564 28.0608 29.5682C26.6299 29.0421 25.1025 28.7596 23.5154 28.7373C23.5154 28.7373 23.5152 28.7373 23.5151 28.7373C21.8949 28.7373 20.2187 29.0347 18.7692 29.5677C18.6093 29.4024 14.297 24.9403 14.297 24.9403L14.168 25.0119C14.1218 25.0376 14.0768 25.065 14.0308 25.0909L14.0232 25.083C10.5277 27.0485 7.71165 30.0667 6.01645 33.6999C6.01968 33.7032 6.02302 33.7065 6.02625 33.7097C4.87597 36.1702 4.25113 38.8787 4.25113 41.6701C4.25113 46.2238 5.90158 50.4702 9.02397 53.9506L9.16005 54.1023L11.7148 51.5162L11.5741 51.384C10.191 50.0835 7.64453 46.4636 7.64453 41.8824C7.64453 41.757 7.64638 41.631 7.6503 41.5039C7.71534 39.6644 8.04391 37.9418 8.63151 36.3418C9.34584 37.0632 10.0587 37.7834 10.7692 38.5009C10.5448 39.3783 10.4216 40.2759 10.4102 41.1774C10.4095 41.2308 10.4092 41.2844 10.4092 41.3378C10.4092 47.1335 14.4571 52.329 20.1063 53.7939C20.1063 54.052 20.1063 57.0532 20.1063 57.0532H23.6541C23.6541 57.0532 23.6541 54.5231 23.6541 54.2033C24.4515 54.186 25.2492 54.0904 26.0334 53.9239C27.7384 55.649 29.4521 57.3835 31.1812 59.1355C34.821 57.5555 37.8766 54.8914 39.9274 51.5564L39.9244 51.5533C41.7435 48.5966 42.7234 45.1797 42.7234 41.6699ZM20.1064 49.8763C16.4718 48.5713 14.139 45.4633 14.0592 41.8234C16.0795 43.8637 18.0918 45.8963 20.1064 47.9319C20.1064 48.9641 20.1064 49.7326 20.1064 49.8763ZM23.4851 34.3881C23.2679 34.1683 21.9361 32.821 21.5698 32.4503C22.2253 32.3255 22.8885 32.257 23.3306 32.277C24.0311 32.2985 24.6678 32.3794 25.2725 32.5158C24.9335 32.8709 23.6975 34.1659 23.4851 34.3881ZM37.1665 48.7346L25.8138 37.1328C27.1799 35.7032 28.6624 34.1515 28.7794 34.0292C29.9714 34.8623 30.9389 35.9529 31.5791 37.1971L31.6898 37.4122L34.5428 34.9705L34.4608 34.8342C33.6846 33.5441 32.604 32.3601 31.3381 31.3872C31.5755 31.1465 33.0333 29.6682 33.2278 29.4709C36.1686 31.5642 39.1026 36.3161 39.1026 41.4981C39.1027 44.5334 38.3938 46.7303 37.1665 48.7346Z" fill="#00529F"/>
<path d="M32.7468 25.7165C31.96 26.5267 28.52 30.0682 28.52 30.0682L28.4371 30.1534H28.4071C28.3808 30.1794 28.3588 30.2012 28.3588 30.2012L28.2301 30.3287L28.0602 30.2645L27.9445 30.2207C26.5532 29.6939 25.0606 29.4153 23.5127 29.3934C21.9559 29.3928 20.2582 29.6968 18.8831 30.2204L18.5904 30.3316L18.4615 30.1982C18.4615 30.1982 14.9728 26.5887 14.1787 25.7669C8.4553 29.0835 4.91335 35.143 4.9137 41.6699C4.9145 45.8983 6.38978 49.8438 9.19039 53.1332C9.596 52.7228 10.3987 51.9104 10.7836 51.5205C9.27827 49.922 6.9874 46.3564 6.9821 41.8801C6.9821 41.7484 6.98417 41.6159 6.98833 41.4819C7.16535 36.3792 9.30768 32.1096 13.3205 28.8587L13.6562 28.5862L16.5049 31.5053L16.0795 31.8233C12.9851 34.1348 11.1163 37.6421 11.0728 41.1855C11.0722 41.2361 11.0718 41.2872 11.0718 41.3377C11.0698 46.8819 14.9818 51.8626 20.4111 53.1994L20.769 53.2873V53.5048C20.769 53.5073 20.769 55.5934 20.769 56.3971C21.3194 56.3971 22.4415 56.3971 22.992 56.3971C22.992 56.0895 22.992 55.5997 22.992 55.1302C22.992 54.4607 22.992 53.834 22.992 53.8328V53.5565L23.4605 53.554C26.9145 53.5346 30.412 51.9488 32.6658 49.4111C32.2609 49.0056 31.3558 48.0993 30.9251 47.6679C28.751 49.9877 25.7402 51.1787 23.6874 51.1851C23.6026 51.1851 23.5199 51.1831 23.4389 51.1793L22.9919 51.1562V47.7952H23.2723C23.2755 47.7952 25.9529 47.7952 26.8744 47.7954C26.8744 47.3055 26.8744 46.3761 26.8744 45.8861C25.9522 45.8861 23.2723 45.8861 23.2723 45.8864H22.9919V43.1631H23.2723C23.2723 43.1631 25.9944 43.1631 26.9242 43.1635C26.9242 42.7275 26.9242 41.9597 26.9242 41.524C25.8105 41.524 21.8827 41.524 20.7688 41.524C20.7688 43.0826 20.7688 50.4117 20.7688 50.4117V50.797L20.1485 50.5922C16.0395 49.2382 13.3906 45.7262 13.3929 41.6312C13.3929 41.5676 13.3935 41.5035 13.395 41.4392C13.4663 38.1494 15.0569 35.1843 17.752 33.3222L18.0809 33.0947L18.247 33.2643C18.247 33.2643 22.4745 37.5856 23.4837 38.617C24.4656 37.5894 28.5253 33.3407 28.5253 33.3407L28.6893 33.169L29.0211 33.3924C30.1963 34.1836 31.1723 35.2105 31.8777 36.3844C32.3539 35.977 33.2708 35.1922 33.6786 34.8431C32.9311 33.6965 31.9361 32.6388 30.774 31.7758L30.344 31.4564L33.1489 28.6118L33.4766 28.8361C36.6266 31.0033 39.7573 36.0026 39.7652 41.4982C39.7701 45.8728 38.2624 48.7118 36.02 51.4407C36.4403 51.8573 37.4167 52.8255 37.8749 53.2797C40.5764 50.0152 42.0612 45.9135 42.061 41.6702C42.0611 35.1006 38.5005 29.0225 32.7468 25.7165ZM23.6935 35.1246L23.4933 35.334L20.2594 32.0624L21.0826 31.8778C21.8176 31.7135 22.5803 31.6172 23.1595 31.6169C23.2277 31.6169 23.2943 31.6182 23.3541 31.621C24.2227 31.6475 25.0124 31.7568 25.7617 31.9557L26.5257 32.1584L23.6935 35.1246Z" fill="#FEBE10"/>
</g>
<defs>
<clipPath id="clip0_62_203">
<rect width="47" height="65" fill="white"/>
</clipPath>
</defs>
</svg>
