<svg width="266" height="45" viewBox="0 0 45 45" fill="none" xmlns="http://www.w3.org/2000/svg">
<path fill-rule="evenodd" clip-rule="evenodd" d="M21.7219 28.511H36.3571L40.9114 35.4163L104.521 35.4682C126.792 56.0918 150.891 33.1373 187.051 40.3056L183.785 35.353L253.935 35.4182L260.751 25.0829L257.903 21.8774L263.37 21.1123L265.887 17.2954L261.205 10.1952L239.346 10.0502L244.285 2.56223L227.184 2.544L222.28 9.97823L201.925 9.95423L206.815 2.54112L173.215 2.53152L173.166 0.0278379L92.6112 0L86.0122 10.0051L48.9475 9.94464L44.2147 2.76864L21.5146 2.76096L0 35.3827L17.1802 35.3971L21.7219 28.511Z" fill="#BE1623"/>
<path d="M109.911 3.19725C111.104 3.19725 111.922 3.95509 111.922 5.12561C111.922 6.29614 111.104 7.04647 109.911 7.04647H107.135V8.4496H105.784V3.19725H109.911ZM109.536 5.91346C109.941 5.91346 110.572 5.91346 110.572 5.12561C110.572 4.33026 109.941 4.33026 109.536 4.33026H107.135V5.91346H109.536ZM118.546 5.12561C118.546 5.98099 118.111 6.61128 117.406 6.8889L118.374 8.4496H116.783L115.935 7.04647H113.759V8.4496H112.408V3.19725H116.535C117.728 3.19725 118.546 3.95509 118.546 5.12561ZM113.759 4.33026V5.91346H116.16C116.565 5.91346 117.196 5.91346 117.196 5.12561C117.196 4.33026 116.565 4.33026 116.16 4.33026H113.759ZM124.541 4.27023H120.339V5.33571H124.541V6.31114H120.339V7.37662H124.541V8.4496H118.989V3.19725H124.541V4.27023ZM128.845 3.19725C130.204 3.19725 131.397 4.03762 131.397 5.82342C131.397 7.60922 130.204 8.4496 128.845 8.4496H125.034V3.19725H128.845ZM128.335 7.31659C129.356 7.31659 130.046 7.099 130.046 5.82342C130.046 4.54785 129.356 4.33026 128.335 4.33026H126.384V7.31659H128.335ZM133.236 3.19725V8.4496H131.885V3.19725H133.236ZM133.686 5.81592C133.686 4.07514 134.676 3.12221 136.987 3.12221C139.081 3.12221 140.131 3.91757 140.266 5.43325H138.893C138.766 4.58537 138.113 4.25522 136.987 4.25522C135.614 4.25522 135.036 4.74294 135.036 5.81592C135.036 6.8964 135.622 7.39163 136.987 7.39163C138.105 7.39163 138.766 7.05398 138.893 6.19859H140.266C140.131 7.72177 139.081 8.52463 136.987 8.52463C134.676 8.52463 133.686 7.5642 133.686 5.81592ZM146.799 3.19725V4.33026H144.248V8.4496H142.898V4.33026H140.346V3.19725H146.799ZM148.594 3.19725V8.4496H147.243V3.19725H148.594ZM152.346 8.52463C150.035 8.52463 149.044 7.5642 149.044 5.81592C149.044 4.07514 150.035 3.12221 152.346 3.12221C154.649 3.12221 155.647 4.08264 155.647 5.81592C155.647 7.5567 154.649 8.52463 152.346 8.52463ZM152.346 7.39163C153.749 7.39163 154.297 6.8889 154.297 5.81592C154.297 4.75044 153.756 4.25522 152.346 4.25522C150.935 4.25522 150.395 4.74294 150.395 5.81592C150.395 6.8964 150.943 7.39163 152.346 7.39163ZM161.556 3.19725H162.907V8.4496H161.069L157.49 4.51034V8.4496H156.139V3.19725H157.97L161.556 7.14402V3.19725Z" fill="white"/>
<path fill-rule="evenodd" clip-rule="evenodd" d="M151.342 20.9126C154.101 20.9126 156.339 23.1494 156.339 25.9094C156.339 28.6685 154.102 30.9062 151.342 30.9062C148.582 30.9062 146.345 28.6694 146.345 25.9094C146.345 23.1494 148.582 20.9126 151.342 20.9126Z" fill="#BE1623"/>
<mask id="mask0_62_31" style="mask-type:luminance" maskUnits="userSpaceOnUse" x="146" y="20" width="11" height="11">
<path d="M151.342 20.9126C154.101 20.9126 156.339 23.1494 156.339 25.9094C156.339 28.6685 154.102 30.9062 151.342 30.9062C148.582 30.9062 146.345 28.6694 146.345 25.9094C146.345 23.1494 148.582 20.9126 151.342 20.9126Z" fill="white"/>
</mask>
<g mask="url(#mask0_62_31)">
<path fill-rule="evenodd" clip-rule="evenodd" d="M152.718 22.6925C151.723 21.505 151.301 20.8579 150.419 20.9213C149.435 21.1066 148.553 21.5952 147.869 22.2902C147.856 22.3373 147.852 22.3843 147.856 22.4333C148.226 22.5389 149.325 22.4995 150.553 22.7885C151.088 22.9142 152.594 23.472 153.007 23.423C153.061 23.0189 152.939 22.9565 152.718 22.6934V22.6925Z" fill="#121C24"/>
<path fill-rule="evenodd" clip-rule="evenodd" d="M153.664 24.5347L150.155 23.543C149.492 23.3981 148.384 23.3376 147.085 23.3184C146.727 23.9424 146.495 24.6528 146.427 25.4112C147.131 25.6675 151.861 25.512 152.946 25.5216C153.063 25.5226 153.294 25.5322 153.399 25.5216C154.247 25.4333 153.679 24.5491 153.664 24.5347Z" fill="#121C24"/>
<path fill-rule="evenodd" clip-rule="evenodd" d="M153.223 26.3309C151.107 26.2906 148.761 26.2944 146.423 26.3069C146.471 26.9059 146.621 27.4762 146.853 27.9974C147.206 28.3987 147.874 28.7491 149.871 28.3709C150.054 28.3363 153.47 27.4522 153.64 27.2822C153.692 27.2294 154.331 26.352 153.223 26.3309Z" fill="#121C24"/>
<path fill-rule="evenodd" clip-rule="evenodd" d="M152.988 28.44C152.568 28.3901 150.675 29.0765 149.97 29.1926C149.626 29.2502 148.79 29.2963 147.722 29.3299C148.508 30.1987 149.587 30.7805 150.797 30.9091C151.136 30.8102 151.522 30.527 152.05 29.927C152.522 29.3914 153.091 28.9181 152.988 28.439V28.44Z" fill="#121C24"/>
<path fill-rule="evenodd" clip-rule="evenodd" d="M154.204 28.3949C153.964 28.6435 153.689 29.2272 153.415 29.5853C152.764 30.4349 152.659 30.2861 152.686 30.7142C152.712 30.7133 152.739 30.7114 152.766 30.7085C153.691 30.4109 154.5 29.8378 155.099 29.0822C155.187 28.6243 154.369 28.3987 154.205 28.3939L154.204 28.3949Z" fill="#121C24"/>
<path fill-rule="evenodd" clip-rule="evenodd" d="M154.619 27.408C154.794 27.6422 154.948 27.6701 155.197 27.8534C155.34 27.9581 155.532 28.1376 155.74 28.0349C155.975 27.5194 156.129 26.9568 156.182 26.3635L154.855 26.3616C154.696 26.6333 154.604 26.9434 154.62 27.407L154.619 27.408Z" fill="#121C24"/>
<path fill-rule="evenodd" clip-rule="evenodd" d="M154.852 25.4938C155.287 25.5322 155.837 25.5869 156.181 25.4122C156.181 25.4112 156.181 25.4112 156.182 25.4102C156.132 24.865 155.999 24.3456 155.795 23.8637C155.773 23.8378 155.752 23.8157 155.732 23.7984C155.391 23.8118 154.819 24.2333 154.605 24.4406C154.575 24.8035 154.707 25.2499 154.852 25.4938Z" fill="#121C24"/>
<path fill-rule="evenodd" clip-rule="evenodd" d="M154.204 23.4509C154.367 23.449 155.696 23.2349 154.734 22.2922C154.504 22.0675 154.4 21.9811 154.158 21.792C153.871 21.5674 153.151 21.1565 152.689 21.1344C152.677 21.503 153.019 21.7392 153.417 22.2643C153.721 22.6675 153.938 23.1744 154.204 23.4518V23.4509Z" fill="#121C24"/>
</g>
<path d="M151.342 20.7686C152.761 20.7686 154.047 21.3447 154.977 22.2749C155.907 23.2051 156.483 24.4915 156.483 25.9104C156.483 27.3293 155.907 28.6157 154.977 29.545C154.046 30.4752 152.761 31.0512 151.342 31.0512C149.923 31.0512 148.638 30.4752 147.708 29.545C146.777 28.6147 146.201 27.3293 146.201 25.9104C146.201 24.4915 146.777 23.2061 147.708 22.2759C148.638 21.3456 149.924 20.7696 151.343 20.7696L151.342 20.7686ZM154.773 22.4775C153.896 21.6 152.682 21.0566 151.342 21.0566C150.002 21.0566 148.788 21.6 147.91 22.4775C147.033 23.3549 146.489 24.5693 146.489 25.9095C146.489 27.2496 147.033 28.463 147.91 29.3405C148.788 30.2179 150.002 30.7613 151.342 30.7613C152.682 30.7613 153.896 30.2179 154.773 29.3405C155.651 28.463 156.194 27.2496 156.194 25.9095C156.194 24.5693 155.651 23.3549 154.773 22.4775Z" fill="#121C24"/>
<path fill-rule="evenodd" clip-rule="evenodd" d="M22.7942 21.0874L29.9059 10.1808H37.5244L38.4105 8.83775H29.1743L27.3667 11.5786L25.9641 13.7069L24.3071 16.2173L22.7519 18.576L21.0959 21.0874H22.7942Z" fill="#121C24"/>
<path fill-rule="evenodd" clip-rule="evenodd" d="M7.50909 30.7498V31.8192H15.0393L19.6253 24.9389H36.7968L45.5769 11.5574L42.0912 6.32736H23.6169L18.7507 13.7069L17.0937 16.2192L15.5385 18.5779L13.8825 21.0883L12.2265 23.5987L10.5705 26.1091L9.16605 28.2394L7.51005 30.7498H7.50909ZM35.1993 13.7069L33.5433 16.2173L30.3321 21.0864H24.1267H21.096L22.752 18.576L24.3072 16.2173L25.9632 13.7069L27.3657 11.5786L29.1734 8.83679H38.4086L36.9945 10.9805L35.1974 13.7059L35.1993 13.7069Z" fill="#121C24"/>
<path fill-rule="evenodd" clip-rule="evenodd" d="M22.752 18.576L24.3072 16.2173L25.9632 13.7069L27.3657 11.5786L29.1734 8.83679H38.4086L35.1974 13.7059L33.5414 16.2163L30.3302 21.0854H21.0941L22.7501 18.575L22.752 18.576ZM42.0902 6.3264H23.616L18.7497 13.7059L17.0928 16.2182L15.5376 18.577L13.8816 21.0874L12.2256 23.5978L10.5696 26.1082L9.16509 28.2384L7.50909 30.7488H14.7235L16.3795 28.2384L17.784 26.1082L19.44 23.5978H35.2924H35.8905L37.5465 21.0874L39.2025 18.577L40.7577 16.2182L44.6851 10.2624L42.0892 6.32736L42.0902 6.3264Z" fill="white"/>
<path fill-rule="evenodd" clip-rule="evenodd" d="M13.4947 22.3478L8.13696 30.3552L14.5018 30.3763L19.2538 23.2291L35.6832 23.2253L36.241 22.3478H13.4947Z" fill="#CDC0CA"/>
<path fill-rule="evenodd" clip-rule="evenodd" d="M72.7824 27.9648L71.8964 29.3079H77.4452H79.2615L82.7895 23.9578L83.978 22.1559H82.2528L78.3485 27.9648H72.7824Z" fill="#121C24"/>
<path fill-rule="evenodd" clip-rule="evenodd" d="M69.6615 21.7574L71.0544 19.6454H71.1043H82.6599C83.1907 19.5686 83.6851 19.4707 84.1411 19.3469L83.9405 19.6454H85.6896L82.7904 23.9578L82.3229 24.6672L80.6669 27.1776L80.1475 27.9648H80.6112L83.6698 23.4173H89.8819L85.921 29.3097L85.6618 29.6947L84.4915 31.4352H78.2775H77.7879H77.7629H76.0157L75.7575 31.8202H76.297H77.6055H84.8199L86.4759 29.3097L89.5363 24.6682L91.1923 22.1578L94.4035 17.2886L96.0595 14.7782L99.2707 9.90911L100.927 7.39871L100.159 6.32927H92.8935L85.9085 16.7213C85.0186 17.6294 82.9623 18.1833 82.0522 18.3053H70.2595L65.3818 25.5619L66.2842 26.8819L68.4643 23.5757L69.3984 22.1587L69.6615 21.7594V21.7574Z" fill="#121C24"/>
<path fill-rule="evenodd" clip-rule="evenodd" d="M93.7123 7.39584L92.0563 9.9072L87.1891 17.2867L86.7274 17.9885C85.8038 18.8918 84.4416 19.3882 82.6598 19.6454H78.2688H71.0544L69.6614 21.7574L69.3984 22.1568L67.7424 24.6672L66.2832 26.879L66.481 27.1776L69.5424 31.8192H76.2979H77.6064H84.8208L86.4768 29.3088L89.5373 24.6672L91.1933 22.1568L94.4045 17.2877L96.0605 14.7773L99.2717 9.90816L100.928 7.39775H93.7133L93.7123 7.39584ZM82.3219 24.6672L80.6659 27.1776L79.2605 29.3078H74.641H71.8963L73.2691 27.2266L73.2365 27.1766H73.3018L74.9578 24.6662L76.6138 22.1558H83.9789L82.3229 24.6662L82.3219 24.6672Z" fill="white"/>
<path fill-rule="evenodd" clip-rule="evenodd" d="M83.6698 23.4163L79.7078 29.3088L79.4486 29.6938H78.959L71.5795 29.6928H71.0899L71.3491 29.3079L75.3091 23.4163H69.0739L66.7459 26.88L68.3779 29.3079L68.6371 29.6928L69.8064 31.4333L77.7888 31.4342H78.2784H84.4925L85.6627 29.6938L85.9219 29.3088L89.8819 23.4163H83.6698Z" fill="#CDC0CA"/>
<path fill-rule="evenodd" clip-rule="evenodd" d="M109.008 35.1091C113.782 39.3773 121.125 40.8192 128.007 40.7568C140.062 40.6483 150.177 36.9735 161.501 36.1949C164.834 35.9655 179.029 36.8304 180.014 36.3869C165.328 34.0791 159.041 33.9331 143.96 35.5526C137.815 36.2122 118.454 37.4611 112.427 30.5674C111.879 29.9415 111.442 29.2483 111.133 28.4813C111.078 28.3421 111.027 28.201 110.979 28.057C110.643 27.0317 110.53 25.8807 110.682 24.5914C110.76 23.9386 110.974 23.5959 111.312 23.4154H114.474L116.13 20.905L117.756 18.4416L117.724 18.3946L116.169 16.0359L114.513 13.5255H113.782H106.657H99.4426L97.7866 16.0359L96.2314 18.3946L94.5754 20.905L92.9194 23.4154L91.2634 25.9258L89.8589 28.056L88.2029 30.5664H95.5642L100.134 23.4144H103.69L103.925 24.9677C104.037 25.9248 104.212 26.8291 104.444 27.6826C104.479 27.8083 104.514 27.9322 104.551 28.056C104.816 28.9488 105.146 29.784 105.534 30.5664C106.118 31.7453 106.835 32.8023 107.659 33.7469L109.007 35.1082L109.008 35.1091ZM101.79 20.905L103.446 18.3946L105.002 16.0359H112.127L108.916 20.905H101.791H101.79Z" fill="white"/>
<path fill-rule="evenodd" clip-rule="evenodd" d="M95.1658 30.1824L99.7133 23.4154L99.9725 23.0304H100.502H104.28L104.312 23.4154C105.737 37.0387 116.821 40.7626 130.619 40.0445C133.378 39.9005 136.254 39.6326 139.217 39.1517C146.271 38.0064 153.826 36.1757 161.501 35.7091C165.71 35.4538 169.856 35.8416 173.922 36.1066C175.109 36.1843 176.29 36.2506 177.462 36.288C176.281 36.1382 175.153 36.0019 174.075 35.879C155.024 33.7056 151.225 35.5776 140.945 36.2813C134.691 36.7075 130.326 36.864 123.882 35.9117C117.764 35.0064 112.103 33.1133 110.43 28.104C110.031 26.9117 110.01 24.8698 110.325 23.6112C110.326 23.6064 110.327 23.6006 110.329 23.5968C110.577 23.1312 111.026 23.0295 111.423 23.0304H114.196L114.778 22.1645H101.084H100.554H94.3152L88.9268 30.1815H95.1668L95.1658 30.1824Z" fill="#CDC0CA"/>
<path fill-rule="evenodd" clip-rule="evenodd" d="M95.5642 30.5674H88.2019L88.7798 31.8192H96.1421L100.95 24.6672H103.879L103.69 23.4154H101.792H100.134L99.3341 24.6672L95.5642 30.5674Z" fill="#121C24"/>
<path fill-rule="evenodd" clip-rule="evenodd" d="M101.79 20.905H103.479L105.85 17.3789H111.24L112.126 16.0349H106.753H105.034L104.13 17.3789L103.447 18.3955L103.3 18.6144L101.79 20.905Z" fill="#121C24"/>
<path fill-rule="evenodd" clip-rule="evenodd" d="M112.427 30.5674C111.003 26.8714 112.251 24.6672 112.251 24.6672H115.308L118.464 19.9737L117.756 18.4416L116.131 20.905L114.475 23.4154H111.313C110.975 23.5958 110.761 23.9376 110.683 24.5914C110.68 24.6163 110.677 24.6413 110.675 24.6672C110.535 25.9257 110.651 27.0518 110.98 28.057C111.027 28.201 111.079 28.3421 111.134 28.4813C111.324 28.9536 111.563 29.399 111.847 29.8166C112.023 30.0768 112.217 30.3274 112.428 30.5674H112.427Z" fill="#121C24"/>
<path fill-rule="evenodd" clip-rule="evenodd" d="M111.02 36.6519C118.571 45.5232 139.116 41.6026 151.395 38.7514C154.077 38.1283 157.355 37.5763 160.852 37.3776C170.216 36.8458 180.589 37.5715 180.589 37.5715L179.993 36.3965C178.855 36.8218 164.812 35.9693 161.499 36.1968C150.175 36.9754 140.06 40.6502 128.005 40.7587C122.029 40.8125 115.707 39.7325 111.019 36.6528L111.02 36.6519Z" fill="#121C24"/>
<path fill-rule="evenodd" clip-rule="evenodd" d="M138.741 29.3261L137.868 28.0598H137.829L136.173 30.5702H136.115H120.531L121.229 31.8211H137.114L138.741 29.3261Z" fill="#121C24"/>
<path fill-rule="evenodd" clip-rule="evenodd" d="M129.514 18.791L127.28 22.1798L126.455 23.4298H128.116L128.931 22.1798L132.053 17.3933H137.074L137.96 16.0502H131.322L129.766 18.409L129.514 18.791Z" fill="#121C24"/>
<path fill-rule="evenodd" clip-rule="evenodd" d="M124.799 25.9411L123.975 27.191L123.396 28.0723L138.741 29.3376L140.198 27.191L143.466 22.1798L144.781 20.1629L143.917 18.839L141.714 22.1798L139.234 25.9411H126.479H124.799Z" fill="#121C24"/>
<path fill-rule="evenodd" clip-rule="evenodd" d="M126.455 23.4298L129.767 18.408L131.322 16.0493H135.35H137.961L136.656 18.0278L136.405 18.408L133.093 23.4298H126.455ZM143.932 18.8179L142.106 16.0493L140.45 13.5389H139.616H125.18L121.969 18.408L118.657 23.4298L117.235 25.585L120.531 30.5818H121.738H128.376H136.173L143.931 18.8179H143.932Z" fill="white"/>
<path fill-rule="evenodd" clip-rule="evenodd" d="M132.839 23.8138H125.74L125.993 23.4298L126.816 22.1837H126.807L119.946 22.1818L118.866 23.8119L117.774 25.4611L117.691 25.5859L119.335 28.0656L119.589 28.4506L120.746 30.1968L135.94 30.2016L136.626 29.1639L138.757 25.9411L141.241 22.1875L134.376 22.1837L133.553 23.4307L133.301 23.8138H132.839Z" fill="#CDC0CA"/>
<path fill-rule="evenodd" clip-rule="evenodd" d="M51.1498 18.7776L48.9149 22.1664L48.0903 23.4163H49.752L50.5671 22.1664L53.688 17.3798H58.7098L59.5959 16.0358H52.9575L51.4023 18.3955L51.1498 18.7776Z" fill="#121C24"/>
<path fill-rule="evenodd" clip-rule="evenodd" d="M46.4343 25.9277L45.6106 27.1776L45.0308 28.0589L46.7252 28.0579L47.2992 27.1776H61.8346L65.1024 22.1664L66.4176 20.1494L65.5536 18.8256L63.3504 22.1664L60.8698 25.9277H48.1143H46.4343Z" fill="#121C24"/>
<path fill-rule="evenodd" clip-rule="evenodd" d="M60.3763 29.3242L59.5047 28.0579H59.4643L57.8083 30.5683H57.7498H42.1671L42.864 31.8192H58.7491L60.3763 29.3242Z" fill="#121C24"/>
<path fill-rule="evenodd" clip-rule="evenodd" d="M48.0903 23.4163L51.4023 18.3946L52.9575 16.0358H56.9856H59.5959L58.2912 18.0144L58.0407 18.3946L54.7287 23.4163H48.0903ZM45.0307 28.0579L46.4343 25.9277H60.8698L65.5671 18.8054L63.7411 16.0368L62.0851 13.5264H61.2509H46.8154L43.6042 18.3955L40.2922 23.4173L38.8704 25.5725L42.1661 30.5693H43.3728H50.0112H57.8083L59.4643 28.0589H46.7251H45.0307V28.0579Z" fill="white"/>
<path fill-rule="evenodd" clip-rule="evenodd" d="M47.376 23.8003L48.4426 22.1693L41.5824 22.1683L40.5015 23.7984L39.41 25.4477L39.3274 25.5725L40.97 28.0521L41.2253 28.4371L42.3821 30.1834L57.5751 30.1872L58.7492 28.4419L44.2839 28.4381L44.5431 28.0531L46.2932 25.4496L60.6711 25.4544L62.8762 22.1731L56.0112 22.1702L54.9955 23.8598L47.376 23.8003Z" fill="#CDC0CA"/>
<path fill-rule="evenodd" clip-rule="evenodd" d="M188.293 21.6182L186.352 19.2912L190.717 17.9434L192.806 14.7754L197.674 7.39584L189.917 7.39967L175.331 7.39296L174.011 7.392L157.901 31.8192H164.6H181.567L184.159 27.889L188.293 21.6192V21.6182ZM184.274 17.3597L174.269 17.3558L178.251 11.3174L188.255 11.3222L184.274 17.3587V17.3597ZM171.305 21.8506L181.316 21.8458L177.33 27.8899L167.322 27.8909L171.306 21.8506H171.305Z" fill="white"/>
<path fill-rule="evenodd" clip-rule="evenodd" d="M160.713 28.272L158.621 31.4342L164.497 31.4352H164.972H174.98H175.455H181.331L183.423 28.273L183.677 27.8899L186.553 23.5411H180.677L177.801 27.8899L177.547 28.273H177.072H167.064H166.588L166.842 27.889L169.718 23.5402H163.842L160.966 27.889L160.713 28.272Z" fill="#CDC0CA"/>
<path fill-rule="evenodd" clip-rule="evenodd" d="M188.255 11.3222H186.624L178.249 11.3203L177.361 12.6662H185.738L182.642 17.3606L184.272 17.3616L188.255 11.3222Z" fill="#121C24"/>
<path fill-rule="evenodd" clip-rule="evenodd" d="M175.7 27.8851L177.332 27.8842L180.429 23.1878L181.315 21.8448H179.684H171.307L170.421 23.1878H178.798L175.7 27.8851Z" fill="#121C24"/>
<path fill-rule="evenodd" clip-rule="evenodd" d="M176.594 6.144L174.011 7.39104L175.333 7.392L189.918 7.39871L197.674 7.39488L192.806 14.7754L190.718 17.7763L186.352 19.2902L188.294 21.6182L184.158 27.888L181.567 31.8182L183.615 31.3747L189.945 21.7747L188.474 19.7136L192.151 18.4291L200.252 6.144H176.594Z" fill="#121C24"/>
<path fill-rule="evenodd" clip-rule="evenodd" d="M202.215 18.7776L199.981 22.1664L199.157 23.4163H200.818L201.634 22.1664L204.755 17.3798H209.775L210.661 16.0358H204.024L202.468 18.3955L202.215 18.7776Z" fill="#121C24"/>
<path fill-rule="evenodd" clip-rule="evenodd" d="M197.501 25.9277L196.677 27.1776L196.097 28.0589L197.792 28.0579L198.366 27.1776H212.901L216.169 22.1664L217.483 20.1494L216.62 18.8256L214.416 22.1664L211.935 25.9277H199.181H197.501Z" fill="#121C24"/>
<path fill-rule="evenodd" clip-rule="evenodd" d="M211.443 29.3242L210.57 28.0579H210.531L208.875 30.5683H208.816H193.234L193.931 31.8192H209.816L211.443 29.3242Z" fill="#121C24"/>
<path fill-rule="evenodd" clip-rule="evenodd" d="M199.157 23.4163L202.469 18.3946L204.024 16.0358H208.052H210.662L209.358 18.0144L209.107 18.3946L205.795 23.4163H199.157ZM196.097 28.0579L197.501 25.9277H211.936L216.634 18.8054L214.808 16.0368L213.152 13.5264H212.317H197.882L194.671 18.3955L191.359 23.4173L189.937 25.5725L193.233 30.5693H194.439H201.078H208.875L210.531 28.0589H197.792H196.097V28.0579Z" fill="white"/>
<path fill-rule="evenodd" clip-rule="evenodd" d="M198.443 23.8003L199.509 22.1693L192.649 22.1683L191.568 23.7984L190.476 25.4477L190.393 25.5725L192.036 28.0521L192.291 28.4371L193.448 30.1834L208.642 30.1872L209.815 28.4419L195.35 28.4381L195.609 28.0531L197.36 25.4496L211.737 25.4544L213.943 22.1731L207.078 22.1702L206.062 23.8598L198.443 23.8003Z" fill="#CDC0CA"/>
<path fill-rule="evenodd" clip-rule="evenodd" d="M223.57 14.7763L224.394 13.5245L220.973 13.5283L219.124 14.7763H221.324H223.57Z" fill="#121C24"/>
<path fill-rule="evenodd" clip-rule="evenodd" d="M231.221 13.5283L230.398 14.7763H236.374L234.268 17.976L236.58 17.136L238.958 13.5293L232.983 13.5283L237.852 6.14592L231.867 6.14496L228.437 7.39584L235.267 7.39488L231.221 13.5283Z" fill="#121C24"/>
<path fill-rule="evenodd" clip-rule="evenodd" d="M229.602 17.9789L228.286 17.9779L222.578 26.6333L221.754 27.8822H223.517L231.344 27.8832L228.748 31.8192L230.937 31.1741L233.93 26.6352L224.34 26.6333L230.049 17.9789H229.602Z" fill="#121C24"/>
<path fill-rule="evenodd" clip-rule="evenodd" d="M221.752 27.8851L228.286 17.9779L234.261 17.9798L236.374 14.7763H230.398L235.265 7.39584H228.437L223.57 14.7763H221.324H219.124L217.014 17.975L221.459 17.976L214.924 27.8851L212.329 31.8192H219.158H228.748L231.344 27.8832L221.752 27.8851Z" fill="white"/>
<path fill-rule="evenodd" clip-rule="evenodd" d="M218.321 23.4192L213.135 31.343H213.945L228.597 31.345L230.55 28.3603L221.449 28.3594H220.98L221.292 27.8832L224.211 23.4211L219.156 23.4192H218.321Z" fill="#CDC0CA"/>
<path fill-rule="evenodd" clip-rule="evenodd" d="M235.069 26.952H241.868L241.111 28.1002L240.288 29.3482H242.052L244.894 29.3491L245.717 28.1011H242.874L244.453 25.7059L237.395 25.704L235.069 26.952Z" fill="#121C24"/>
<path fill-rule="evenodd" clip-rule="evenodd" d="M247.668 20.8301L249.989 17.3117L248.227 17.3107L245.083 22.0771L252.774 22.079L254.878 24.5635L253.301 26.9549L252.543 28.103L251.721 29.3501L250.081 31.8365L252.49 30.8573L256.714 24.4541L253.645 20.831L247.668 20.8301Z" fill="#121C24"/>
<path fill-rule="evenodd" clip-rule="evenodd" d="M258.044 14.8282L259.671 17.2954L258.085 19.7002L260.522 18.6787L261.435 17.2954L258.984 13.5792L245.347 13.5773L243.037 14.8234L249.866 14.8253L254.471 14.8272L258.044 14.8282Z" fill="#121C24"/>
<path fill-rule="evenodd" clip-rule="evenodd" d="M241.399 17.3088L239.825 19.6944L238.333 21.9562L238.412 22.0752L240.052 24.5616L248.05 24.5645L244.894 29.3491L240.289 29.3472L241.868 26.952H241.628L235.04 26.9501L234.393 27.9331L233.381 29.4662L234.942 31.8317L238.649 31.8336L243.254 31.8346L250.081 31.8365L254.876 24.5664L252.779 22.079L249.688 22.0781L245.083 22.0771L248.226 17.3107L252.831 17.3126L251.258 19.6973L258.085 19.7002L259.671 17.2954L258.044 14.8282L254.471 14.8272L249.866 14.8253L243.037 14.8234L241.399 17.3088Z" fill="white"/>
<path fill-rule="evenodd" clip-rule="evenodd" d="M254.387 24.5933L253.956 24.0864L253.432 23.471H249.233H239.805L240.208 24.0864H248.359H248.831L245.388 29.3491L245.076 29.8243H239.98H239.508L239.82 29.3491L241.074 27.431L235.194 27.432L233.94 29.3491L233.862 29.4682L234.095 29.8243L235.098 31.3574H244.072H249.96L250.963 29.8243L251.274 29.3482L254.387 24.5933Z" fill="#CDC0CA"/>
</svg>
